<?xml version="1.0" encoding="utf-8"?>
<!-- Generator: Adobe Illustrator 19.0.0, SVG Export Plug-In . SVG Version: 6.00 Build 0)  -->
<svg version="1.1" id="Layer_1" xmlns="http://www.w3.org/2000/svg" xmlns:xlink="http://www.w3.org/1999/xlink" x="0px" y="0px"
	 viewBox="0 0 224.1 178.6" style="enable-background:new 0 0 224.1 178.6;" xml:space="preserve">
<style type="text/css">
	.st0{fill:#FFFFFF;}
</style>
<g>
	<path class="st0" d="M62.1,144.8c-2.4,0.2-4.3,0.8-5.6,2.5c-1.3,1.7-1.9,3.9-1.9,6.6v10.5c0,2.3-0.4,3.9-1.3,5.1
		c1.3,1.2,2.9,1.7,4.7,1.7c1.8,0,3-0.4,3.7-1.2c0.7-0.8,1-2.1,1-3.7v-10.9c0-1.2,0.2-2,0.5-2.6c1.3-2.4,4.9-1.8,5.6-1.2v19.2
		c0.6,0.1,1.2,0.2,1.9,0.2c0.7,0.1,1.4,0.1,2.1,0.1c0.7,0,1.4,0,2.1-0.1c0.7-0.1,1.3-0.1,1.9-0.2v-23.3
		C77.1,147.5,71.8,143.8,62.1,144.8z"/>
	<path class="st0" d="M122.9,156.9c1.2,0,2.3-0.3,3.1-0.9c0.8-0.6,1.3-1.6,1.3-3c0-1.3-0.2-2.4-0.7-3.4c-0.5-1-1.2-1.9-2.1-2.7
		c-0.9-0.8-2-1.3-3.2-1.7c-1.2-0.4-2.6-0.6-4.1-0.6c-1.5,0-2.9,0.3-4.2,0.8c-1.3,0.5-2.5,1.4-3.6,2.5c-1,1.1-1.9,2.5-2.5,4.1
		c-0.6,1.7-0.9,3.6-0.9,5.9c0,4.4,1,7.8,2.9,10.2c1.9,2.4,4.7,3.6,8.4,3.6c1.9,0,3.7-0.4,5.5-1.1c1.8-0.7,3.3-1.7,4.4-2.9
		c-0.1-0.4-0.3-0.8-0.5-1.3c-0.2-0.5-0.4-0.9-0.7-1.3c-0.3-0.4-0.6-0.8-0.9-1.1c-0.3-0.3-0.6-0.6-0.9-0.7c-1.1,0.8-2.1,1.3-3.1,1.6
		c-1,0.3-1.8,0.5-2.6,0.5c-0.8,0-1.4-0.1-1.9-0.4c-0.5-0.3-1-0.7-1.4-1.2c-0.4-0.6-0.6-1.3-0.8-2.2c-0.2-0.9-0.3-2.1-0.3-3.4
		c0-2.7,0.2-4.7,0.7-5.9c0.5-1.2,1.3-1.8,2.5-1.8c1.1,0,1.9,0.4,2.3,1.3c0.4,0.9,0.6,2.3,0.6,4.2v0.7
		C120.9,156.8,121.8,156.9,122.9,156.9z"/>
	<path class="st0" d="M166.1,152.9c0-2.5-0.6-4.4-1.8-5.9c-1.2-1.5-3-2.2-5.3-2.2c-2.4,0-4.9,1.2-7.6,3.5c-1.2-2.3-3.2-3.5-6-3.5
		c-2.3,0-4.6,1.1-7.1,3.3c-0.7-2.1-2.1-3.2-4.3-3.2h-3l-0.4,0.4v25.5c0.6,0.1,1.2,0.2,1.9,0.2c0.7,0.1,1.4,0.1,2.1,0.1
		c0.7,0,1.4,0,2.1-0.1c0.7-0.1,1.3-0.1,1.9-0.2v-17.1c0.6-0.5,1.2-0.9,1.7-1.3c0.6-0.3,1.1-0.5,1.7-0.5c1.5,0,2.3,1.1,2.3,3.4v15.4
		c0.6,0.1,1.2,0.2,1.9,0.2c0.7,0.1,1.4,0.1,2.1,0.1c0.7,0,1.4,0,2.1-0.1c0.7-0.1,1.3-0.1,1.9-0.2v-17c1.2-1.2,2.3-1.8,3.3-1.8
		c1.6,0,2.4,1.1,2.4,3.4v10.9c0,1.7,0.3,2.9,1,3.7c0.6,0.8,1.9,1.2,3.6,1.2c1.8,0,3.4-0.6,4.7-1.7c-0.9-1.2-1.3-2.8-1.3-5.1V152.9z"
		/>
	<path class="st0" d="M191.5,164.3v-10.4c0-1.5-0.3-2.9-0.7-4c-0.5-1.1-1.2-2-2-2.7c-0.8-0.7-1.8-1.2-2.9-1.6
		c-1.1-0.3-2.3-0.5-3.4-0.5c-0.8,0-1.7,0.1-2.8,0.2c-1,0.1-2.1,0.3-3.1,0.5c-1.1,0.2-2.1,0.4-3.1,0.7c-1,0.3-1.9,0.6-2.7,0.9
		c0.3,2.5,2,5.6,4.5,4.8c3.6-1.1,3.6-0.9,5-0.9c2.2,0,3.3,1.1,3.3,3.3v1c-0.4,0-1-0.1-1.6-0.1c-0.6,0-1.3,0-2.1,0
		c-1.4,0-2.7,0.2-3.9,0.6c-1.2,0.4-2.3,0.9-3.2,1.7c-0.9,0.7-1.6,1.7-2.2,2.8c-0.5,1.1-0.8,2.4-0.8,3.9c0,1,0.2,2,0.5,2.9
		c0.3,0.9,0.9,1.8,1.5,2.5c0.7,0.7,1.5,1.3,2.5,1.7c1,0.4,2.1,0.6,3.5,0.6c2.6,0,5-1,7.2-3.1c1.3,1.7,5.3,2.6,7,0.9
		c0.7-0.7,0.8-1.6,1-2.3C192,167,191.5,165.9,191.5,164.3z M183.5,164.7c-1.2,1-2.3,1.5-3.2,1.5c-1.8,0-2.8-0.8-2.8-2.4
		c0-2.2,1.1-3.3,3.2-3.3c0.2,0,0.6,0,1,0c0.5,0,1,0,1.7,0.1V164.7z"/>
	<path class="st0" d="M101.8,164.3v-10.4c0-1.5-0.2-2.9-0.7-4c-0.5-1.1-1.2-2-2-2.7c-0.8-0.7-1.8-1.2-2.9-1.6
		c-1.1-0.3-2.3-0.5-3.5-0.5c-0.8,0-1.7,0.1-2.8,0.2c-1,0.1-2.1,0.3-3.1,0.5c-1.1,0.2-2.1,0.4-3.1,0.7c-1,0.3-1.9,0.6-2.7,0.9
		c0.3,2.5,2,5.6,4.5,4.8c3.6-1.1,3.6-0.9,5-0.9c2.2,0,3.3,1.1,3.3,3.3v1c-0.4,0-1-0.1-1.6-0.1c-0.6,0-1.3,0-2.1,0
		c-1.4,0-2.7,0.2-3.9,0.6c-1.2,0.4-2.3,0.9-3.2,1.7c-0.9,0.7-1.6,1.7-2.2,2.8c-0.5,1.1-0.8,2.4-0.8,3.9c0,1,0.2,2,0.5,2.9
		c0.3,0.9,0.9,1.8,1.5,2.5c0.7,0.7,1.5,1.3,2.5,1.7c1,0.4,2.1,0.6,3.5,0.6c2.6,0,5-1,7.2-3.1c1.3,1.7,5.3,2.6,7,0.9
		c0.7-0.7,0.8-1.6,1-2.3C102.3,167,101.8,165.9,101.8,164.3z M93.8,164.7c-1.2,1-2.3,1.5-3.2,1.5c-1.8,0-2.8-0.8-2.8-2.4
		c0-2.2,1.1-3.3,3.2-3.3c0.2,0,0.6,0,1,0c0.5,0,1,0,1.7,0.1V164.7z"/>
	<path class="st0" d="M49.9,164.3v-10.4c0-1.5-0.2-2.9-0.7-4c-0.5-1.1-1.2-2-2-2.7c-0.8-0.7-1.8-1.2-2.9-1.6
		c-1.1-0.3-2.3-0.5-3.4-0.5c-0.8,0-1.7,0.1-2.8,0.2c-1,0.1-2.1,0.3-3.1,0.5c-1.1,0.2-2.1,0.4-3.1,0.7c-1,0.3-1.9,0.6-2.7,0.9
		c0.3,2.5,2,5.6,4.5,4.8c3.6-1.1,3.6-0.9,5-0.9c2.2,0,3.3,1.1,3.3,3.3v1c-0.4,0-1-0.1-1.6-0.1c-0.6,0-1.3,0-2.1,0
		c-1.4,0-2.7,0.2-3.9,0.6c-1.2,0.4-2.3,0.9-3.2,1.7c-0.9,0.7-1.6,1.7-2.2,2.8c-0.5,1.1-0.8,2.4-0.8,3.9c0,1,0.2,2,0.5,2.9
		c0.3,0.9,0.9,1.8,1.5,2.5c0.7,0.7,1.5,1.3,2.5,1.7c1,0.4,2.1,0.6,3.5,0.6c2.6,0,5-1,7.2-3.1c1.3,1.7,5.3,2.6,7,0.9
		c0.7-0.7,0.8-1.6,1-2.3C50.4,167,49.9,165.9,49.9,164.3z M41.9,164.7c-1.2,1-2.3,1.5-3.2,1.5c-1.8,0-2.8-0.8-2.8-2.4
		c0-2.2,1.1-3.3,3.2-3.3c0.2,0,0.6,0,1,0c0.5,0,1,0,1.7,0.1V164.7z"/>
	<path class="st0" d="M220.1,140.8c-1.7,0-3,0.1-4.1,0.3v9.8l0.1,3.8l-2.6-0.1h-6l-2.6,0.1l0.1-3.8v-3.3c0-5.3-2.4-6.8-4.1-6.8
		c-1.7,0-3,0.1-4.1,0.3c0,0,0,24.5,0,27.1c0,2.5-0.8,6.8-2.2,7.8c0.6,1.7,3.4,2.6,5.1,2.6c1.7,0,5.2-0.8,5.2-7.5c0-4.8,0-5.8,0-5.9
		l-0.1-3.8l2.6,0.1h6l2.6-0.1l-0.1,3.8v6.1c0,3.2,2.4,5,4.1,5c1.6,0,3-0.1,4.1-0.3v-27.7C224.1,144,222.7,140.8,220.1,140.8z"/>
	<path class="st0" d="M153.8,142.1c6.2-0.5,4.8-7.2,3.6-8.4c-4.6,2.6-15.5,2.6-19.9,1.3C137.5,142.5,153.8,142.1,153.8,142.1z"/>
	<path class="st0" d="M24,160.5c-0.5-0.8-1.2-1.5-2-2.1c-0.8-0.6-4.2-3.6-10.3-3.6H8.1v-1.1v-5.9h10.1c6.9,0,5.4-7,4.1-8.3
		c-2.9,2.5-21.9,1.3-21.9,1.3L0,141.1v0.2v7v25.4c0,0,3.9,2.6,12.9,2.6c4.1,0,7.3-0.8,9.5-2.5s3.3-4.3,3.3-7.8c0-1-0.2-1.9-0.5-2.9
		C25,162.2,24.5,161.3,24,160.5z M16.6,168.9c-0.6,0.8-1.4,1.3-2.4,1.5c-0.9,0.2-2,0.3-3.1,0.3c-1.1,0-2.1,0-3,0v-10h4.2
		c1.8,0,3.1,0.5,3.9,1.5c0.8,1,1.2,2.1,1.2,3.5C17.5,167,17.2,168.1,16.6,168.9z"/>
	<path class="st0" d="M198.2,105.1c0-0.2,0.1-0.6,0.1-0.8c0.8-6.2,2.3-42.3-2.1-52c-2.1-5.8-6.8-13.6-18-21.8
		c-13.5-9.9-32.1-20.3-44.9-26.2c-11.7-5.9-30.7-5.6-42.4,0c-14,6.3-31.4,16.3-44.9,26.2c-0.3,0.2-0.6,0.5-0.9,0.7l-0.1,0l0,0
		c-0.3,0.2-0.5,0.4-0.8,0.6l-0.4,0.3l-0.4,0.3C29.5,43.6,27,53.6,26.4,58.7c-2.1,13.1-1.7,34.7-0.4,45.6c0,0.1,0.1,0.7,0.1,0.8
		c0,0.2,0.1,0.3,0.2,0.5c1,4.9,26.3,9,60.8,10.4V81c-6.7-3-13-7.2-18.5-12.7c-2.2-2.2-2.2-5.8,0-8c2.2-2.2,5.8-2.2,8,0
		c19.6,19.6,51.6,19.6,71.2,0c2.2-2.2,5.8-2.2,8,0c2.2,2.2,2.2,5.8,0,8c-5.5,5.5-11.8,9.7-18.5,12.7v35c27.4-1.1,49-4,57-7.6
		C196.6,107.4,198,106.3,198.2,105.1z M112.1,67.5c-13.1,0-23.6-10.6-23.6-23.6c0-13.1,10.6-23.6,23.6-23.6c4.3,0,10.1-2.1,13.1-6.4
		c1.4,4,0.8,7.3-0.8,9.9c6.8,4.2,11.3,11.6,11.3,20.2C135.7,56.9,125.1,67.5,112.1,67.5z"/>
</g>
</svg>
