<?xml version="1.0" encoding="utf-8"?>
<!-- Generator: Adobe Illustrator 21.0.0, SVG Export Plug-In . SVG Version: 6.00 Build 0)  -->
<svg version="1.1" id="Слой_1" xmlns="http://www.w3.org/2000/svg" xmlns:xlink="http://www.w3.org/1999/xlink" x="0px" y="0px"
	 viewBox="0 0 341.5 91.1" style="enable-background:new 0 0 341.5 91.1;" xml:space="preserve">
<style type="text/css">
	.st0{fill:#0E73C5;}
</style>
<path class="st0" d="M80.5,41v50.1c34.1-0.9,55-4.3,55.5-9c1.3-12,1.2-30.5-0.7-38.4c-1.9-7.7-7.8-19.4-45.4-38.1
	C71.4-3.6,58,0,47,5.7C18.9,20.2,4.9,30.8,1.8,43.5c-3,12.3-1.4,37.2-0.9,38.5s1.3,7.2,52.4,9V54.6L80.5,41z"/>
<g>
	<path class="st0" d="M168.3,42.3l12.5-16.7h10.9l-14.9,19.6l15.7,20.3h-11.9L168.4,50H167v15.5h-10.1V25.6H167v16.7
		C167,42.3,168.3,42.3,168.3,42.3z"/>
	<path class="st0" d="M204.5,65.5V33.7H193v-8.1h33.1v8.1h-11.5v31.8H204.5z"/>
	<path class="st0" d="M248.6,25.6c8.6,0,14.4,5.6,14.4,14.2c0,8.5-6.1,14-15,14h-6.8v11.7h-10.1V25.6H248.6z M241.3,46.1h4.6
		c4.3,0,6.8-2.2,6.8-6.4s-2.5-6.4-6.8-6.4h-4.7L241.3,46.1L241.3,46.1z"/>
	<path class="st0" d="M279.6,42.3l12.5-16.7H303l-14.9,19.7l15.7,20.3h-11.9L279.7,50h-1.4v15.5h-10.1v-40h10.1v16.7
		C278.3,42.3,279.6,42.3,279.6,42.3z"/>
</g>
</svg>
