<?xml version="1.0" encoding="utf-8"?>
<!-- Generator: Adobe Illustrator 19.0.0, SVG Export Plug-In . SVG Version: 6.00 Build 0)  -->
<svg version="1.1" id="Слой_1" xmlns="http://www.w3.org/2000/svg" xmlns:xlink="http://www.w3.org/1999/xlink" x="0px" y="0px"
	 viewBox="-31 253.2 531.5 335.7" style="enable-background:new -31 253.2 531.5 335.7;" xml:space="preserve">
<style type="text/css">
	.st0{clip-path:url(#SVGID_4_);fill:#008BD2;}
	.st1{opacity:0.5;clip-path:url(#SVGID_6_);fill:#004E9E;enable-background:new    ;}
	.st2{opacity:0.5;clip-path:url(#SVGID_8_);fill:#004E9E;enable-background:new    ;}
	.st3{opacity:0.5;clip-path:url(#SVGID_10_);fill:#004E9E;enable-background:new    ;}
	.st4{opacity:0.5;clip-path:url(#SVGID_12_);fill:#82D0F5;enable-background:new    ;}
	.st5{opacity:0.5;clip-path:url(#SVGID_14_);fill:#0095D4;enable-background:new    ;}
	.st6{opacity:0.5;clip-path:url(#SVGID_16_);fill:#0068B4;enable-background:new    ;}
	.st7{opacity:0.5;clip-path:url(#SVGID_18_);fill:#82D0F5;enable-background:new    ;}
	.st8{opacity:0.5;clip-path:url(#SVGID_20_);fill:#0095D4;enable-background:new    ;}
	.st9{opacity:0.5;clip-path:url(#SVGID_22_);fill:#82D0F5;enable-background:new    ;}
	.st10{opacity:0.5;clip-path:url(#SVGID_24_);fill:#004E9E;enable-background:new    ;}
	.st11{opacity:0.5;clip-path:url(#SVGID_26_);fill:#0095D4;enable-background:new    ;}
	.st12{opacity:0.5;clip-path:url(#SVGID_28_);fill:#82D0F5;enable-background:new    ;}
	.st13{opacity:0.5;clip-path:url(#SVGID_30_);fill:#006FB9;enable-background:new    ;}
	.st14{opacity:0.5;clip-path:url(#SVGID_32_);fill:#005CA9;enable-background:new    ;}
	.st15{opacity:0.5;clip-path:url(#SVGID_34_);fill:#82D0F5;enable-background:new    ;}
	.st16{opacity:0.5;clip-path:url(#SVGID_36_);fill:#0095D4;enable-background:new    ;}
	.st17{opacity:0.5;clip-path:url(#SVGID_38_);fill:#0095D4;enable-background:new    ;}
	.st18{opacity:0.5;clip-path:url(#SVGID_40_);fill:#0095D4;enable-background:new    ;}
	.st19{opacity:0.5;clip-path:url(#SVGID_42_);fill:#5BC5F2;enable-background:new    ;}
	.st20{opacity:0.5;clip-path:url(#SVGID_44_);fill:#008BD2;enable-background:new    ;}
	.st21{opacity:0.5;clip-path:url(#SVGID_46_);fill:#04BBEE;enable-background:new    ;}
	.st22{opacity:0.5;clip-path:url(#SVGID_48_);fill:#04BBEE;enable-background:new    ;}
	.st23{opacity:0.5;clip-path:url(#SVGID_50_);fill:#92D5F6;enable-background:new    ;}
	.st24{opacity:0.5;clip-path:url(#SVGID_52_);fill:#009EE3;enable-background:new    ;}
	.st25{opacity:0.5;clip-path:url(#SVGID_54_);fill:#006FB9;enable-background:new    ;}
	.st26{opacity:0.5;clip-path:url(#SVGID_56_);fill:#0095D4;enable-background:new    ;}
	.st27{opacity:0.5;clip-path:url(#SVGID_58_);fill:#0095D4;enable-background:new    ;}
	.st28{opacity:0.5;clip-path:url(#SVGID_60_);fill:#0068B4;enable-background:new    ;}
	.st29{opacity:0.5;clip-path:url(#SVGID_62_);fill:#0095D4;enable-background:new    ;}
	.st30{opacity:0.5;clip-path:url(#SVGID_64_);fill:#82D0F5;enable-background:new    ;}
	.st31{opacity:0.5;clip-path:url(#SVGID_66_);fill:#004E9E;enable-background:new    ;}
	.st32{opacity:0.5;clip-path:url(#SVGID_68_);fill:#0095D4;enable-background:new    ;}
	.st33{opacity:0.5;clip-path:url(#SVGID_70_);fill:#04BBEE;enable-background:new    ;}
	.st34{opacity:0.5;clip-path:url(#SVGID_72_);fill:#82D0F5;enable-background:new    ;}
	.st35{opacity:0.5;clip-path:url(#SVGID_74_);fill:#006FB9;enable-background:new    ;}
	.st36{opacity:0.5;clip-path:url(#SVGID_76_);fill:#0095D4;enable-background:new    ;}
	.st37{opacity:0.5;clip-path:url(#SVGID_78_);fill:#005CA9;enable-background:new    ;}
	.st38{opacity:0.5;clip-path:url(#SVGID_80_);fill:#82D0F5;enable-background:new    ;}
	.st39{opacity:0.5;clip-path:url(#SVGID_82_);fill:#0095D4;enable-background:new    ;}
	.st40{opacity:0.5;clip-path:url(#SVGID_84_);fill:#0095D4;enable-background:new    ;}
	.st41{opacity:0.5;clip-path:url(#SVGID_86_);fill:#006FB9;enable-background:new    ;}
	.st42{opacity:0.5;clip-path:url(#SVGID_88_);fill:#82D0F5;enable-background:new    ;}
	.st43{opacity:0.5;clip-path:url(#SVGID_90_);fill:#0095D4;enable-background:new    ;}
	.st44{opacity:0.5;clip-path:url(#SVGID_92_);fill:#0095D4;enable-background:new    ;}
	.st45{opacity:0.5;clip-path:url(#SVGID_94_);fill:#0068B4;enable-background:new    ;}
	.st46{opacity:0.5;clip-path:url(#SVGID_96_);fill:#82D0F5;enable-background:new    ;}
	.st47{opacity:0.5;clip-path:url(#SVGID_98_);fill:#0095D4;enable-background:new    ;}
	.st48{opacity:0.5;clip-path:url(#SVGID_100_);fill:#82D0F5;enable-background:new    ;}
	.st49{opacity:0.5;clip-path:url(#SVGID_102_);fill:#0095D4;enable-background:new    ;}
	.st50{opacity:0.5;clip-path:url(#SVGID_104_);fill:#82D0F5;enable-background:new    ;}
	.st51{opacity:0.5;clip-path:url(#SVGID_106_);fill:#006FB9;enable-background:new    ;}
	.st52{opacity:0.5;clip-path:url(#SVGID_108_);fill:#008BD2;enable-background:new    ;}
	.st53{opacity:0.5;clip-path:url(#SVGID_110_);fill:#004E9E;enable-background:new    ;}
	.st54{opacity:0.5;clip-path:url(#SVGID_112_);fill:#0095D4;enable-background:new    ;}
	.st55{opacity:0.5;clip-path:url(#SVGID_114_);fill:#82D0F5;enable-background:new    ;}
	.st56{opacity:0.5;clip-path:url(#SVGID_116_);fill:#006FB9;enable-background:new    ;}
	.st57{opacity:0.5;clip-path:url(#SVGID_118_);fill:#5BC5F2;enable-background:new    ;}
	.st58{opacity:0.5;clip-path:url(#SVGID_120_);fill:#008BD2;enable-background:new    ;}
	.st59{opacity:0.5;clip-path:url(#SVGID_122_);fill:#82D0F5;enable-background:new    ;}
	.st60{opacity:0.5;clip-path:url(#SVGID_124_);fill:#004E9E;enable-background:new    ;}
	.st61{opacity:0.5;clip-path:url(#SVGID_126_);fill:#004E9E;enable-background:new    ;}
	.st62{opacity:0.5;clip-path:url(#SVGID_128_);fill:#04BBEE;enable-background:new    ;}
	.st63{opacity:0.5;clip-path:url(#SVGID_130_);fill:#0095D4;enable-background:new    ;}
	.st64{opacity:0.5;clip-path:url(#SVGID_132_);fill:#005CA9;enable-background:new    ;}
	.st65{opacity:0.5;clip-path:url(#SVGID_134_);fill:#82D0F5;enable-background:new    ;}
	.st66{opacity:0.5;clip-path:url(#SVGID_136_);fill:#0095D4;enable-background:new    ;}
	.st67{opacity:0.5;clip-path:url(#SVGID_138_);fill:#005CA9;enable-background:new    ;}
	.st68{opacity:0.5;clip-path:url(#SVGID_140_);fill:#006FB9;enable-background:new    ;}
	.st69{fill:#FFFFFF;}
	.st70{fill:#008BD2;}
	.st71{font-family:'Plumb-Bold';}
	.st72{font-size:63.0769px;}
</style>
<g>
	<g>
		<defs>
			<rect id="SVGID_1_" x="-360.5" y="-420.7" width="1190.6" height="1683.8"/>
		</defs>
		<clipPath id="SVGID_2_">
			<use xlink:href="#SVGID_1_"  style="overflow:visible;"/>
		</clipPath>
	</g>
	<g>
		<defs>
			<rect id="SVGID_3_" x="-360.5" y="-420.7" width="1190.6" height="1683.8"/>
		</defs>
		<clipPath id="SVGID_4_">
			<use xlink:href="#SVGID_3_"  style="overflow:visible;"/>
		</clipPath>
		<path class="st0" d="M237.5,253.7C135.3,244.2-27.4,374.4-31,441.4l1.7,91.6c2.2,52.9,157.5,54.6,217.5,56.2V476.8l82.5-51.1
			v163.5c44.6-0.1,234.9,1.3,229.8-59.4v-89.5C500.5,361.7,326.9,252.3,237.5,253.7"/>
	</g>
	<g>
		<defs>
			<rect id="SVGID_5_" x="-360.5" y="-420.7" width="1190.6" height="1683.8"/>
		</defs>
		<clipPath id="SVGID_6_">
			<use xlink:href="#SVGID_5_"  style="overflow:visible;"/>
		</clipPath>
		<polygon class="st1" points="106.9,474.8 106.9,474.8 106.9,474.8 107,474.8 106.9,474.8 106.9,474.8 		"/>
	</g>
	<g>
		<defs>
			<rect id="SVGID_7_" x="-360.5" y="-420.7" width="1190.6" height="1683.8"/>
		</defs>
		<clipPath id="SVGID_8_">
			<use xlink:href="#SVGID_7_"  style="overflow:visible;"/>
		</clipPath>
		<polygon class="st2" points="416.5,422.3 415.5,422.8 415.5,422.8 415.5,422.8 416.3,424.3 416.3,424.3 416.3,424.3 		"/>
	</g>
	<g>
		<defs>
			<rect id="SVGID_9_" x="-360.5" y="-420.7" width="1190.6" height="1683.8"/>
		</defs>
		<clipPath id="SVGID_10_">
			<use xlink:href="#SVGID_9_"  style="overflow:visible;"/>
		</clipPath>
		<path class="st3" d="M389.3,487.7L389.3,487.7L389.3,487.7z"/>
	</g>
	<g>
		<defs>
			<rect id="SVGID_11_" x="-360.5" y="-420.7" width="1190.6" height="1683.8"/>
		</defs>
		<clipPath id="SVGID_12_">
			<use xlink:href="#SVGID_11_"  style="overflow:visible;"/>
		</clipPath>
		<polygon class="st4" points="380.7,315.9 377.3,315.1 378,315.9 		"/>
	</g>
	<g>
		<defs>
			<rect id="SVGID_13_" x="-360.5" y="-420.7" width="1190.6" height="1683.8"/>
		</defs>
		<clipPath id="SVGID_14_">
			<use xlink:href="#SVGID_13_"  style="overflow:visible;"/>
		</clipPath>
		<polygon class="st5" points="338.7,316 378,315.9 377.3,315.1 377.3,315.1 377.3,315.1 261.8,286.6 261.8,286.6 304.8,307.7 		"/>
	</g>
	<g>
		<defs>
			<rect id="SVGID_15_" x="-360.5" y="-420.7" width="1190.6" height="1683.8"/>
		</defs>
		<clipPath id="SVGID_16_">
			<use xlink:href="#SVGID_15_"  style="overflow:visible;"/>
		</clipPath>
		<path class="st6" d="M380.7,315.9h20.1c-15.3-10.3-31.4-19.7-47.7-28l24.1,27.2L380.7,315.9z"/>
	</g>
	<g>
		<defs>
			<rect id="SVGID_17_" x="-360.5" y="-420.7" width="1190.6" height="1683.8"/>
		</defs>
		<clipPath id="SVGID_18_">
			<use xlink:href="#SVGID_17_"  style="overflow:visible;"/>
		</clipPath>
		<path class="st7" d="M377.3,315.1l-24.1-27.2c-31.6-16.1-63.7-27.8-91.3-32.2v30.9l0,0L377.3,315.1z"/>
	</g>
	<g>
		<defs>
			<rect id="SVGID_19_" x="-360.5" y="-420.7" width="1190.6" height="1683.8"/>
		</defs>
		<clipPath id="SVGID_20_">
			<use xlink:href="#SVGID_19_"  style="overflow:visible;"/>
		</clipPath>
		<path class="st8" d="M248.8,254.1l13.1,32.5l0,0v-30.9C257.4,254.9,253,254.4,248.8,254.1"/>
	</g>
	<g>
		<defs>
			<rect id="SVGID_21_" x="-360.5" y="-420.7" width="1190.6" height="1683.8"/>
		</defs>
		<clipPath id="SVGID_22_">
			<use xlink:href="#SVGID_21_"  style="overflow:visible;"/>
		</clipPath>
		<path class="st9" d="M261.8,297.1v-10.5l-13-32.5c-3.9-0.3-7.6-0.4-11.2-0.4c-1.6-0.2-3.3-0.3-4.9-0.3v36.5l14.6,3.6L261.8,297.1z
			"/>
	</g>
	<g>
		<defs>
			<rect id="SVGID_23_" x="-360.5" y="-420.7" width="1190.6" height="1683.8"/>
		</defs>
		<clipPath id="SVGID_24_">
			<use xlink:href="#SVGID_23_"  style="overflow:visible;"/>
		</clipPath>
		<path class="st10" d="M203.4,255.2v31.4l13.3-32.9C212.3,253.9,207.9,254.4,203.4,255.2"/>
	</g>
	<g>
		<defs>
			<rect id="SVGID_25_" x="-360.5" y="-420.7" width="1190.6" height="1683.8"/>
		</defs>
		<clipPath id="SVGID_26_">
			<use xlink:href="#SVGID_25_"  style="overflow:visible;"/>
		</clipPath>
		<path class="st11" d="M203.4,295.7l25.8-6.7l0,0l3.4,0.8v-36.5c-5.2-0.3-10.5-0.2-16,0.2l-13.3,32.9L203.4,295.7z"/>
	</g>
	<g>
		<defs>
			<rect id="SVGID_27_" x="-360.5" y="-420.7" width="1190.6" height="1683.8"/>
		</defs>
		<clipPath id="SVGID_28_">
			<use xlink:href="#SVGID_27_"  style="overflow:visible;"/>
		</clipPath>
		<path class="st12" d="M191.2,408.5L191.2,408.5L191.2,408.5z M204.1,424.3L204.1,424.3L204.1,424.3z M161.7,434.9l14.9,4.4
			l27.5-15.1l-12.9-15.8l0,0l0,0l-64.3-0.4v16.4L161.7,434.9z"/>
	</g>
	<g>
		<defs>
			<rect id="SVGID_29_" x="-360.5" y="-420.7" width="1190.6" height="1683.8"/>
		</defs>
		<clipPath id="SVGID_30_">
			<use xlink:href="#SVGID_29_"  style="overflow:visible;"/>
		</clipPath>
		<polygon class="st13" points="191.2,408.5 191.2,408.5 165.6,377.1 126.9,408.1 		"/>
	</g>
	<g>
		<defs>
			<rect id="SVGID_31_" x="-360.5" y="-420.7" width="1190.6" height="1683.8"/>
		</defs>
		<clipPath id="SVGID_32_">
			<use xlink:href="#SVGID_31_"  style="overflow:visible;"/>
		</clipPath>
		<polygon class="st14" points="111.8,331.5 111.8,331.5 123.7,325.7 117.4,318 		"/>
	</g>
	<g>
		<defs>
			<rect id="SVGID_33_" x="-360.5" y="-420.7" width="1190.6" height="1683.8"/>
		</defs>
		<clipPath id="SVGID_34_">
			<use xlink:href="#SVGID_33_"  style="overflow:visible;"/>
		</clipPath>
		<path class="st15" d="M73.2,318.7l14.8-3.6l0,0l21.5-24.2c-14.8,8.4-29.3,17.9-43,28L73.2,318.7z"/>
	</g>
	<g>
		<defs>
			<rect id="SVGID_35_" x="-360.5" y="-420.7" width="1190.6" height="1683.8"/>
		</defs>
		<clipPath id="SVGID_36_">
			<use xlink:href="#SVGID_35_"  style="overflow:visible;"/>
		</clipPath>
		<path class="st16" d="M203.4,286.6v-31.4c-30.1,4.7-62.8,17.9-94,35.7l-21.5,24.2L203.4,286.6z"/>
	</g>
	<g>
		<defs>
			<rect id="SVGID_37_" x="-360.5" y="-420.7" width="1190.6" height="1683.8"/>
		</defs>
		<clipPath id="SVGID_38_">
			<use xlink:href="#SVGID_37_"  style="overflow:visible;"/>
		</clipPath>
		<polygon class="st17" points="126.9,424.5 126.9,408.1 88.5,388.3 83.1,401.6 79.9,409.3 81.2,410.8 81.2,410.8 		"/>
	</g>
	<g>
		<defs>
			<rect id="SVGID_39_" x="-360.5" y="-420.7" width="1190.6" height="1683.8"/>
		</defs>
		<clipPath id="SVGID_40_">
			<use xlink:href="#SVGID_39_"  style="overflow:visible;"/>
		</clipPath>
		<polygon class="st18" points="450.6,454.7 450.6,454.7 450.4,454 449.6,454 437.5,413.6 437.5,413.6 416.5,422.3 416.5,422.3 
			416.3,424.3 439,466.2 		"/>
	</g>
	<g>
		<defs>
			<rect id="SVGID_41_" x="-360.5" y="-420.7" width="1190.6" height="1683.8"/>
		</defs>
		<clipPath id="SVGID_42_">
			<use xlink:href="#SVGID_41_"  style="overflow:visible;"/>
		</clipPath>
		<polygon class="st19" points="378.2,407.7 378.2,407.7 338.7,316 235.1,447.6 270.6,425.6 270.6,441.9 		"/>
	</g>
	<g>
		<defs>
			<rect id="SVGID_43_" x="-360.5" y="-420.7" width="1190.6" height="1683.8"/>
		</defs>
		<clipPath id="SVGID_44_">
			<use xlink:href="#SVGID_43_"  style="overflow:visible;"/>
		</clipPath>
		<path class="st20" d="M378.2,407.7L378.2,407.7L378.2,407.7z M338.7,316l39.5,91.7l33.9-84c-3.7-2.7-7.5-5.3-11.3-7.8h-20.1H378
			L338.7,316z"/>
	</g>
	<g>
		<defs>
			<rect id="SVGID_45_" x="-360.5" y="-420.7" width="1190.6" height="1683.8"/>
		</defs>
		<clipPath id="SVGID_46_">
			<use xlink:href="#SVGID_45_"  style="overflow:visible;"/>
		</clipPath>
		<path class="st21" d="M415.5,422.8l1-0.4l21-8.8l46.6-19.5c-9.7-14.8-23.2-29.8-39.1-44.1L415.5,422.8z"/>
	</g>
	<g>
		<defs>
			<rect id="SVGID_47_" x="-360.5" y="-420.7" width="1190.6" height="1683.8"/>
		</defs>
		<clipPath id="SVGID_48_">
			<use xlink:href="#SVGID_47_"  style="overflow:visible;"/>
		</clipPath>
		<path class="st22" d="M79.5,410.3l0.4-1l8.6-21l23.3-56.8l5.6-13.6l0,0l-32.5,0.5l0,0l-11.7,0.2l0,0l-6.7,0.1
			c-6.7,4.9-13.2,10-19.4,15.1L79.5,410.3L79.5,410.3z"/>
	</g>
	<g>
		<defs>
			<rect id="SVGID_49_" x="-360.5" y="-420.7" width="1190.6" height="1683.8"/>
		</defs>
		<clipPath id="SVGID_50_">
			<use xlink:href="#SVGID_49_"  style="overflow:visible;"/>
		</clipPath>
		<polygon class="st23" points="117.4,318 123.7,325.7 165.6,377.1 191.2,408.5 204.1,424.3 227.2,452.6 229.3,451.3 229.2,289.1 
			203.4,295.7 163.9,305.9 		"/>
	</g>
	<g>
		<defs>
			<rect id="SVGID_51_" x="-360.5" y="-420.7" width="1190.6" height="1683.8"/>
		</defs>
		<clipPath id="SVGID_52_">
			<use xlink:href="#SVGID_51_"  style="overflow:visible;"/>
		</clipPath>
		<polygon class="st24" points="235.1,447.6 338.7,316 304.8,307.7 261.8,297.1 232.6,289.9 229.2,289.1 229.3,451.3 		"/>
	</g>
	<g>
		<defs>
			<rect id="SVGID_53_" x="-360.5" y="-420.7" width="1190.6" height="1683.8"/>
		</defs>
		<clipPath id="SVGID_54_">
			<use xlink:href="#SVGID_53_"  style="overflow:visible;"/>
		</clipPath>
		<path class="st25" d="M400.7,582.6l-61.6-24.4l23.2,28.3C375,585.5,388,584.3,400.7,582.6"/>
	</g>
	<g>
		<defs>
			<rect id="SVGID_55_" x="-360.5" y="-420.7" width="1190.6" height="1683.8"/>
		</defs>
		<clipPath id="SVGID_56_">
			<use xlink:href="#SVGID_55_"  style="overflow:visible;"/>
		</clipPath>
		<path class="st26" d="M463.4,557.3l-7.7-21.7L436,521.5l-46.7-33.8l0,0l72.9,81.4c1.6-0.6,3.2-1.2,4.7-1.8L463.4,557.3z"/>
	</g>
	<g>
		<defs>
			<rect id="SVGID_57_" x="-360.5" y="-420.7" width="1190.6" height="1683.8"/>
		</defs>
		<clipPath id="SVGID_58_">
			<use xlink:href="#SVGID_57_"  style="overflow:visible;"/>
		</clipPath>
		<path class="st27" d="M405.1,582.1l-31.4-55.8l-34.6,31.9l61.6,24.5C402.2,582.5,403.6,582.3,405.1,582.1"/>
	</g>
	<g>
		<defs>
			<rect id="SVGID_59_" x="-360.5" y="-420.7" width="1190.6" height="1683.8"/>
		</defs>
		<clipPath id="SVGID_60_">
			<use xlink:href="#SVGID_59_"  style="overflow:visible;"/>
		</clipPath>
		<path class="st28" d="M455.6,535.6l30,21.7c0.6-0.4,1.2-0.9,1.8-1.3l-23.8-44l0,0L439,466.3l0,0l-22.7-42l-0.8-1.5l0,0
			L455.6,535.6z"/>
	</g>
	<g>
		<defs>
			<rect id="SVGID_61_" x="-360.5" y="-420.7" width="1190.6" height="1683.8"/>
		</defs>
		<clipPath id="SVGID_62_">
			<use xlink:href="#SVGID_61_"  style="overflow:visible;"/>
		</clipPath>
		<polygon class="st29" points="389.3,433.8 389.3,433.8 389.3,487.7 389.3,487.7 415.5,422.8 389.3,433.8 		"/>
	</g>
	<g>
		<defs>
			<rect id="SVGID_63_" x="-360.5" y="-420.7" width="1190.6" height="1683.8"/>
		</defs>
		<clipPath id="SVGID_64_">
			<use xlink:href="#SVGID_63_"  style="overflow:visible;"/>
		</clipPath>
		<polygon class="st30" points="339.1,558.2 373.7,526.3 389.3,487.7 389.3,487.7 389.3,433.8 		"/>
	</g>
	<g>
		<defs>
			<rect id="SVGID_65_" x="-360.5" y="-420.7" width="1190.6" height="1683.8"/>
		</defs>
		<clipPath id="SVGID_66_">
			<use xlink:href="#SVGID_65_"  style="overflow:visible;"/>
		</clipPath>
		<path class="st31" d="M389.3,433.8l26.2-11l29.4-72.8c-5.2-4.6-10.6-9.2-16.2-13.7L389.3,433.8z"/>
	</g>
	<g>
		<defs>
			<rect id="SVGID_67_" x="-360.5" y="-420.7" width="1190.6" height="1683.8"/>
		</defs>
		<clipPath id="SVGID_68_">
			<use xlink:href="#SVGID_67_"  style="overflow:visible;"/>
		</clipPath>
		<polygon class="st32" points="351.9,472.6 336.4,511.2 339.1,558.2 339.1,558.2 389.3,433.8 		"/>
	</g>
	<g>
		<defs>
			<rect id="SVGID_69_" x="-360.5" y="-420.7" width="1190.6" height="1683.8"/>
		</defs>
		<clipPath id="SVGID_70_">
			<use xlink:href="#SVGID_69_"  style="overflow:visible;"/>
		</clipPath>
		<path class="st33" d="M378.2,407.7l11.2,26.1l39.4-97.5c-5.4-4.3-10.9-8.5-16.6-12.6L378.2,407.7L378.2,407.7z"/>
	</g>
	<g>
		<defs>
			<rect id="SVGID_71_" x="-360.5" y="-420.7" width="1190.6" height="1683.8"/>
		</defs>
		<clipPath id="SVGID_72_">
			<use xlink:href="#SVGID_71_"  style="overflow:visible;"/>
		</clipPath>
		<polygon class="st34" points="270.6,566.2 339.1,558.2 319.4,550.1 271.8,530.5 271.8,530.5 271.8,530.5 271.8,530.5 270.6,533.3 
					"/>
	</g>
	<g>
		<defs>
			<rect id="SVGID_73_" x="-360.5" y="-420.7" width="1190.6" height="1683.8"/>
		</defs>
		<clipPath id="SVGID_74_">
			<use xlink:href="#SVGID_73_"  style="overflow:visible;"/>
		</clipPath>
		<polygon class="st35" points="339.1,558.2 336.4,511.2 271.8,530.5 		"/>
	</g>
	<g>
		<defs>
			<rect id="SVGID_75_" x="-360.5" y="-420.7" width="1190.6" height="1683.8"/>
		</defs>
		<clipPath id="SVGID_76_">
			<use xlink:href="#SVGID_75_"  style="overflow:visible;"/>
		</clipPath>
		<polygon class="st36" points="270.6,461.2 270.9,461 270.6,461 		"/>
	</g>
	<g>
		<defs>
			<rect id="SVGID_77_" x="-360.5" y="-420.7" width="1190.6" height="1683.8"/>
		</defs>
		<clipPath id="SVGID_78_">
			<use xlink:href="#SVGID_77_"  style="overflow:visible;"/>
		</clipPath>
		<polygon class="st37" points="270.9,461 270.6,461.2 270.6,478.6 351.9,472.6 270.9,461 270.9,461 		"/>
	</g>
	<g>
		<defs>
			<rect id="SVGID_79_" x="-360.5" y="-420.7" width="1190.6" height="1683.8"/>
		</defs>
		<clipPath id="SVGID_80_">
			<use xlink:href="#SVGID_79_"  style="overflow:visible;"/>
		</clipPath>
		<polygon class="st38" points="378.2,407.7 270.6,441.9 270.6,461 270.9,461 270.9,461 		"/>
	</g>
	<g>
		<defs>
			<rect id="SVGID_81_" x="-360.5" y="-420.7" width="1190.6" height="1683.8"/>
		</defs>
		<clipPath id="SVGID_82_">
			<use xlink:href="#SVGID_81_"  style="overflow:visible;"/>
		</clipPath>
		<polygon class="st39" points="270.9,461 351.9,472.6 378.2,407.7 		"/>
	</g>
	<g>
		<defs>
			<rect id="SVGID_83_" x="-360.5" y="-420.7" width="1190.6" height="1683.8"/>
		</defs>
		<clipPath id="SVGID_84_">
			<use xlink:href="#SVGID_83_"  style="overflow:visible;"/>
		</clipPath>
		<polygon class="st40" points="271.8,530.5 270.6,529.2 270.6,533.3 		"/>
	</g>
	<g>
		<defs>
			<rect id="SVGID_85_" x="-360.5" y="-420.7" width="1190.6" height="1683.8"/>
		</defs>
		<clipPath id="SVGID_86_">
			<use xlink:href="#SVGID_85_"  style="overflow:visible;"/>
		</clipPath>
		<polygon class="st41" points="188.1,531.3 188.1,531.3 121.2,560.1 188.2,566.8 188.2,531.5 		"/>
	</g>
	<g>
		<defs>
			<rect id="SVGID_87_" x="-360.5" y="-420.7" width="1190.6" height="1683.8"/>
		</defs>
		<clipPath id="SVGID_88_">
			<use xlink:href="#SVGID_87_"  style="overflow:visible;"/>
		</clipPath>
		<polygon class="st42" points="221,456.4 187.7,461.8 187.7,461.8 201.6,468.4 		"/>
	</g>
	<g>
		<defs>
			<rect id="SVGID_89_" x="-360.5" y="-420.7" width="1190.6" height="1683.8"/>
		</defs>
		<clipPath id="SVGID_90_">
			<use xlink:href="#SVGID_89_"  style="overflow:visible;"/>
		</clipPath>
		<polygon class="st43" points="201.6,468.4 187.7,461.8 106.9,474.8 107,474.8 188.2,479.3 188.2,476.8 		"/>
	</g>
	<g>
		<defs>
			<rect id="SVGID_91_" x="-360.5" y="-420.7" width="1190.6" height="1683.8"/>
		</defs>
		<clipPath id="SVGID_92_">
			<use xlink:href="#SVGID_91_"  style="overflow:visible;"/>
		</clipPath>
		<polygon class="st44" points="188.1,531.3 123.1,513.1 121.2,560.1 		"/>
	</g>
	<g>
		<defs>
			<rect id="SVGID_93_" x="-360.5" y="-420.7" width="1190.6" height="1683.8"/>
		</defs>
		<clipPath id="SVGID_94_">
			<use xlink:href="#SVGID_93_"  style="overflow:visible;"/>
		</clipPath>
		<polygon class="st45" points="187.7,461.8 221,456.4 225.1,453.9 176.6,439.4 126.9,424.5 81.2,410.8 81.2,410.8 79.5,410.3 
			79.5,410.3 79.5,410.3 79.5,410.3 		"/>
	</g>
	<g>
		<defs>
			<rect id="SVGID_95_" x="-360.5" y="-420.7" width="1190.6" height="1683.8"/>
		</defs>
		<clipPath id="SVGID_96_">
			<use xlink:href="#SVGID_95_"  style="overflow:visible;"/>
		</clipPath>
		<polygon class="st46" points="187.7,461.8 79.5,410.3 79.5,410.3 79.5,410.3 79.5,410.3 106.9,474.8 		"/>
	</g>
	<g>
		<defs>
			<rect id="SVGID_97_" x="-360.5" y="-420.7" width="1190.6" height="1683.8"/>
		</defs>
		<clipPath id="SVGID_98_">
			<use xlink:href="#SVGID_97_"  style="overflow:visible;"/>
		</clipPath>
		<polygon class="st47" points="79.5,410.3 68.8,436.7 106.9,474.8 106.9,474.8 		"/>
	</g>
	<g>
		<defs>
			<rect id="SVGID_99_" x="-360.5" y="-420.7" width="1190.6" height="1683.8"/>
		</defs>
		<clipPath id="SVGID_100_">
			<use xlink:href="#SVGID_99_"  style="overflow:visible;"/>
		</clipPath>
		<polygon class="st48" points="121.2,560.1 121.2,560.1 123.1,513.1 106.9,474.8 106.9,474.8 68.8,436.7 		"/>
	</g>
	<g>
		<defs>
			<rect id="SVGID_101_" x="-360.5" y="-420.7" width="1190.6" height="1683.8"/>
		</defs>
		<clipPath id="SVGID_102_">
			<use xlink:href="#SVGID_101_"  style="overflow:visible;"/>
		</clipPath>
		<polygon class="st49" points="69.8,490.5 86.1,528.8 121.2,560.1 121.2,560.1 121.2,560.1 121.2,560.1 68.8,436.7 		"/>
	</g>
	<g>
		<defs>
			<rect id="SVGID_103_" x="-360.5" y="-420.7" width="1190.6" height="1683.8"/>
		</defs>
		<clipPath id="SVGID_104_">
			<use xlink:href="#SVGID_103_"  style="overflow:visible;"/>
		</clipPath>
		<path class="st50" d="M101.4,585.3l19.9-25.2l-15.3,6.4l-36.9,15.4C79.7,583.3,90.6,584.4,101.4,585.3"/>
	</g>
	<g>
		<defs>
			<rect id="SVGID_105_" x="-360.5" y="-420.7" width="1190.6" height="1683.8"/>
		</defs>
		<clipPath id="SVGID_106_">
			<use xlink:href="#SVGID_105_"  style="overflow:visible;"/>
		</clipPath>
		<path class="st51" d="M121.2,560.1L86,528.8l-27.8,51.6c3.6,0.5,7.2,1.1,10.8,1.5L121.2,560.1z"/>
	</g>
	<g>
		<defs>
			<rect id="SVGID_107_" x="-360.5" y="-420.7" width="1190.6" height="1683.8"/>
		</defs>
		<clipPath id="SVGID_108_">
			<use xlink:href="#SVGID_107_"  style="overflow:visible;"/>
		</clipPath>
		<polygon class="st52" points="188.2,531.2 188.1,531.3 188.1,531.3 188.1,531.3 188.2,531.5 		"/>
	</g>
	<g>
		<defs>
			<rect id="SVGID_109_" x="-360.5" y="-420.7" width="1190.6" height="1683.8"/>
		</defs>
		<clipPath id="SVGID_110_">
			<use xlink:href="#SVGID_109_"  style="overflow:visible;"/>
		</clipPath>
		<polygon class="st53" points="79.9,409.3 79.5,410.3 81.2,410.8 		"/>
	</g>
	<g>
		<defs>
			<rect id="SVGID_111_" x="-360.5" y="-420.7" width="1190.6" height="1683.8"/>
		</defs>
		<clipPath id="SVGID_112_">
			<use xlink:href="#SVGID_111_"  style="overflow:visible;"/>
		</clipPath>
		<polygon class="st54" points="87.9,315 73.2,318.7 84.9,318.5 		"/>
	</g>
	<g>
		<defs>
			<rect id="SVGID_113_" x="-360.5" y="-420.7" width="1190.6" height="1683.8"/>
		</defs>
		<clipPath id="SVGID_114_">
			<use xlink:href="#SVGID_113_"  style="overflow:visible;"/>
		</clipPath>
		<polygon class="st55" points="450.8,454.9 450.6,454.7 439,466.3 463.6,511.9 493.7,520.7 495.8,500.4 		"/>
	</g>
	<g>
		<defs>
			<rect id="SVGID_115_" x="-360.5" y="-420.7" width="1190.6" height="1683.8"/>
		</defs>
		<clipPath id="SVGID_116_">
			<use xlink:href="#SVGID_115_"  style="overflow:visible;"/>
		</clipPath>
		<polygon class="st56" points="499.9,460.1 450.6,454.7 495.8,500.4 		"/>
	</g>
	<g>
		<defs>
			<rect id="SVGID_117_" x="-360.5" y="-420.7" width="1190.6" height="1683.8"/>
		</defs>
		<clipPath id="SVGID_118_">
			<use xlink:href="#SVGID_117_"  style="overflow:visible;"/>
		</clipPath>
		<path class="st57" d="M42.4,426.1L42.4,426.1L42.4,426.1L42.4,426.1L42.4,426.1L42.4,426.1z M-21.8,550.4l34.7-67.1l-43.1-3.1
			l1,52.9C-29,539.6-26.4,545.3-21.8,550.4z M-30.8,449.4L42.5,426l0,0l-58.8-23.4c-8.7,14.1-14,27.3-14.6,38.7L-30.8,449.4z"/>
	</g>
	<g>
		<defs>
			<rect id="SVGID_119_" x="-360.5" y="-420.7" width="1190.6" height="1683.8"/>
		</defs>
		<clipPath id="SVGID_120_">
			<use xlink:href="#SVGID_119_"  style="overflow:visible;"/>
		</clipPath>
		<path class="st58" d="M42.4,426.1L42.4,426.1L42.4,426.1z M-16.4,402.7l58.8,23.4l-26.9-63.2C2.5,376.3-8.4,389.8-16.4,402.7z"/>
	</g>
	<g>
		<defs>
			<rect id="SVGID_121_" x="-360.5" y="-420.7" width="1190.6" height="1683.8"/>
		</defs>
		<clipPath id="SVGID_122_">
			<use xlink:href="#SVGID_121_"  style="overflow:visible;"/>
		</clipPath>
		<path class="st59" d="M485.6,557.3l-30-21.7l11.2,31.6C474.1,564.4,480.4,561,485.6,557.3"/>
	</g>
	<g>
		<defs>
			<rect id="SVGID_123_" x="-360.5" y="-420.7" width="1190.6" height="1683.8"/>
		</defs>
		<clipPath id="SVGID_124_">
			<use xlink:href="#SVGID_123_"  style="overflow:visible;"/>
		</clipPath>
		<path class="st60" d="M68.8,436.7l10.7-26.3L47,333.9c-5.5,4.6-10.9,9.2-16,13.9L68.8,436.7z"/>
	</g>
	<g>
		<defs>
			<rect id="SVGID_125_" x="-360.5" y="-420.7" width="1190.6" height="1683.8"/>
		</defs>
		<clipPath id="SVGID_126_">
			<use xlink:href="#SVGID_125_"  style="overflow:visible;"/>
		</clipPath>
		<polygon class="st61" points="69.8,490.5 68.8,436.7 42.4,426.1 54.1,453.5 		"/>
	</g>
	<g>
		<defs>
			<rect id="SVGID_127_" x="-360.5" y="-420.7" width="1190.6" height="1683.8"/>
		</defs>
		<clipPath id="SVGID_128_">
			<use xlink:href="#SVGID_127_"  style="overflow:visible;"/>
		</clipPath>
		<path class="st62" d="M42.4,426.1l26.4,10.6l-37.7-88.9c-5.4,5-10.6,10-15.5,15L42.4,426.1L42.4,426.1z"/>
	</g>
	<g>
		<defs>
			<rect id="SVGID_129_" x="-360.5" y="-420.7" width="1190.6" height="1683.8"/>
		</defs>
		<clipPath id="SVGID_130_">
			<use xlink:href="#SVGID_129_"  style="overflow:visible;"/>
		</clipPath>
		<path class="st63" d="M4.3,539.7l-20.9,15.7c3.7,2.9,8,5.6,12.9,8.1L4.3,539.7z"/>
	</g>
	<g>
		<defs>
			<rect id="SVGID_131_" x="-360.5" y="-420.7" width="1190.6" height="1683.8"/>
		</defs>
		<clipPath id="SVGID_132_">
			<use xlink:href="#SVGID_131_"  style="overflow:visible;"/>
		</clipPath>
		<path class="st64" d="M69.8,490.5L4.3,539.6l-8,23.7c2.4,1.2,4.9,2.3,7.6,3.4L69.8,490.5z"/>
	</g>
	<g>
		<defs>
			<rect id="SVGID_133_" x="-360.5" y="-420.7" width="1190.6" height="1683.8"/>
		</defs>
		<clipPath id="SVGID_134_">
			<use xlink:href="#SVGID_133_"  style="overflow:visible;"/>
		</clipPath>
		<path class="st65" d="M-16.6,555.3l20.9-15.7L36,445.1l6.4-19.1l0,0l-29.2,57.2h-0.3l-34.7,67.2
			C-20.3,552.1-18.6,553.8-16.6,555.3"/>
	</g>
	<g>
		<defs>
			<rect id="SVGID_135_" x="-360.5" y="-420.7" width="1190.6" height="1683.8"/>
		</defs>
		<clipPath id="SVGID_136_">
			<use xlink:href="#SVGID_135_"  style="overflow:visible;"/>
		</clipPath>
		<polygon class="st66" points="4.3,539.7 69.8,490.5 42.4,426.1 42.4,426.1 42.4,426.1 		"/>
	</g>
	<g>
		<defs>
			<rect id="SVGID_137_" x="-360.5" y="-420.7" width="1190.6" height="1683.8"/>
		</defs>
		<clipPath id="SVGID_138_">
			<use xlink:href="#SVGID_137_"  style="overflow:visible;"/>
		</clipPath>
		<path class="st67" d="M437.5,413.6l12.1,40.5l50.9-3.7v-10c0-4-0.5-8.1-1.3-12.3L437.5,413.6z"/>
	</g>
	<g>
		<defs>
			<rect id="SVGID_139_" x="-360.5" y="-420.7" width="1190.6" height="1683.8"/>
		</defs>
		<clipPath id="SVGID_140_">
			<use xlink:href="#SVGID_139_"  style="overflow:visible;"/>
		</clipPath>
		<polygon class="st68" points="42.4,426.1 13.2,483.3 -30.3,480.1 -30.8,449.4 		"/>
	</g>
</g>
<path class="st69" d="M127,317.6H-19c-6.6,0-12-5.4-12-12v-40.4c0-6.6,5.4-12,12-12h146c6.6,0,12,5.4,12,12v40.4
	C139,312.2,133.6,317.6,127,317.6z"/>
<text transform="matrix(1 0 0 1 -7.8647 306.1689)" class="st70 st71 st72">beta</text>
</svg>
