<?xml version="1.0" encoding="utf-8"?>
<!-- Generator: Adobe Illustrator 19.0.0, SVG Export Plug-In . SVG Version: 6.00 Build 0)  -->
<svg version="1.1" id="Слой_1" xmlns="http://www.w3.org/2000/svg" xmlns:xlink="http://www.w3.org/1999/xlink" x="0px" y="0px"
	 viewBox="0 0 531.5 335.7" style="enable-background:new 0 0 531.5 335.7;" xml:space="preserve">
<style type="text/css">
	.st0{clip-path:url(#SVGID_2_);}
	.st1{clip-path:url(#SVGID_2_);fill-rule:evenodd;clip-rule:evenodd;fill:#008BD2;}
	.st2{opacity:0.5;clip-path:url(#SVGID_2_);fill:#004E9E;}
	.st3{opacity:0.5;clip-path:url(#SVGID_2_);fill:#82D0F5;}
	.st4{opacity:0.5;clip-path:url(#SVGID_2_);fill:#0095D4;}
	.st5{opacity:0.5;clip-path:url(#SVGID_2_);fill:#0068B4;}
	.st6{opacity:0.5;clip-path:url(#SVGID_2_);fill:#006FB9;}
	.st7{opacity:0.5;clip-path:url(#SVGID_2_);fill:#005CA9;}
	.st8{opacity:0.5;clip-path:url(#SVGID_2_);fill:#5BC5F2;}
	.st9{opacity:0.5;clip-path:url(#SVGID_2_);fill:#008BD2;}
	.st10{opacity:0.5;clip-path:url(#SVGID_2_);fill:#04BBEE;}
	.st11{opacity:0.5;clip-path:url(#SVGID_2_);fill:#92D5F6;}
	.st12{opacity:0.5;clip-path:url(#SVGID_2_);fill:#009EE3;}
</style>
<g>
	<defs>
		<rect id="SVGID_1_" x="-329.5" y="-673.9" width="1190.6" height="1683.8"/>
	</defs>
	<clipPath id="SVGID_2_">
		<use xlink:href="#SVGID_1_"  style="overflow:visible;"/>
	</clipPath>
	<g class="st0">
		<defs>
			<rect id="SVGID_3_" x="-329.5" y="-673.9" width="1190.6" height="1683.8"/>
		</defs>
		<clipPath id="SVGID_4_">
			<use xlink:href="#SVGID_3_"  style="overflow:visible;"/>
		</clipPath>
	</g>
	<path class="st1" d="M268.5,0.5C166.3-9,3.6,121.2,0,188.2l1.7,91.6c2.2,52.9,157.5,54.6,217.5,56.2V223.6l82.5-51.1V336
		c44.6-0.1,234.9,1.3,229.8-59.4v-89.5C531.5,108.5,357.9-0.9,268.5,0.5"/>
	<polygon class="st2" points="137.9,221.6 137.9,221.6 137.9,221.6 138,221.6 137.9,221.6 137.9,221.6 137.9,221.6 	"/>
	<polygon class="st2" points="447.5,169.1 446.5,169.6 446.5,169.6 446.5,169.6 447.3,171.1 447.3,171.1 447.3,171.1 	"/>
	<polygon class="st2" points="420.3,234.5 420.3,234.5 420.3,234.5 	"/>
	<polygon class="st3" points="411.7,62.7 408.3,61.9 409,62.7 	"/>
	<polygon class="st4" points="369.7,62.8 409,62.7 408.3,61.9 408.3,61.9 408.3,61.9 292.8,33.4 292.8,33.4 335.8,54.5 	"/>
	<path class="st5" d="M411.7,62.7l20.1,0c-15.3-10.3-31.4-19.7-47.7-28l24.1,27.2L411.7,62.7z"/>
	<path class="st3" d="M408.3,61.9l-24.1-27.2c-31.6-16.1-63.7-27.8-91.3-32.2l0,30.9v0L408.3,61.9z"/>
	<path class="st4" d="M279.8,0.9l13.1,32.5v0l0-30.9C288.4,1.7,284,1.2,279.8,0.9"/>
	<path class="st3" d="M292.8,43.9V33.4L279.8,0.9c-3.9-0.3-7.6-0.4-11.2-0.4c-1.6-0.2-3.3-0.3-4.9-0.3l0,36.5l14.6,3.6L292.8,43.9z"
		/>
	<path class="st2" d="M234.4,2l0,31.4l13.3-32.9C243.3,0.7,238.9,1.2,234.4,2"/>
	<path class="st4" d="M234.4,42.5l25.8-6.7h0l3.4,0.8l0-36.5c-5.2-0.3-10.5-0.2-16,0.2l-13.3,32.9L234.4,42.5z"/>
	<path class="st3" d="M222.2,155.3L222.2,155.3L222.2,155.3z M235.1,171.1L235.1,171.1L235.1,171.1z M192.7,181.7l14.9,4.4
		l27.5-15.1l-12.9-15.8h0v0l-64.3-0.4l0,16.4L192.7,181.7z"/>
	<polygon class="st6" points="222.2,155.3 222.2,155.3 196.6,123.9 157.9,154.9 	"/>
	<polygon class="st7" points="142.8,78.3 142.8,78.3 154.7,72.5 148.4,64.8 	"/>
	<path class="st3" d="M104.2,65.5l14.8-3.6h0l21.5-24.2c-14.8,8.4-29.3,17.9-43,28L104.2,65.5z"/>
	<path class="st4" d="M234.4,33.4l0-31.4c-30.1,4.7-62.8,17.9-94,35.7l-21.5,24.2L234.4,33.4z"/>
	<polygon class="st4" points="157.9,171.3 157.9,154.9 119.5,135.1 114.1,148.4 110.9,156.1 112.2,157.6 112.2,157.6 157.9,171.3 	
		"/>
	<polygon class="st4" points="481.6,201.5 481.6,201.5 481.4,200.8 480.6,200.8 468.5,160.4 468.5,160.4 447.5,169.1 447.5,169.1 
		447.3,171.1 470,213 	"/>
	<polygon class="st8" points="409.2,154.5 409.2,154.5 369.7,62.8 266.1,194.4 301.6,172.4 301.6,188.7 409.2,154.5 	"/>
	<path class="st9" d="M409.2,154.5L409.2,154.5L409.2,154.5z M369.7,62.8l39.5,91.7l33.9-84c-3.7-2.7-7.5-5.3-11.3-7.8l-20.1,0
		l-2.7,0L369.7,62.8z"/>
	<path class="st10" d="M446.5,169.6l1-0.4l21-8.8l46.6-19.5c-9.7-14.8-23.2-29.8-39.1-44.1L446.5,169.6z"/>
	<path class="st10" d="M110.5,157.1l0.4-1l8.6-21l23.3-56.8l5.6-13.6l0,0l-32.5,0.5l0,0l-11.7,0.2v0l-6.7,0.1
		c-6.7,4.9-13.2,10-19.4,15.1L110.5,157.1L110.5,157.1z"/>
	<polygon class="st11" points="148.4,64.8 154.7,72.5 196.6,123.9 222.2,155.3 235.1,171.1 258.2,199.4 260.3,198.1 260.2,35.9 
		234.4,42.5 194.9,52.7 	"/>
	<polygon class="st12" points="266.1,194.4 369.7,62.8 335.8,54.5 292.8,43.9 263.6,36.7 260.2,35.9 260.3,198.1 	"/>
	<path class="st6" d="M431.7,329.4L370.1,305l23.2,28.3C406,332.3,419,331.1,431.7,329.4"/>
	<path class="st4" d="M494.4,304.1l-7.7-21.7L467,268.3l-46.7-33.8l0,0l72.9,81.4c1.6-0.6,3.2-1.2,4.7-1.8L494.4,304.1z"/>
	<path class="st4" d="M436.1,328.9l-31.4-55.8L370.1,305l61.6,24.5C433.2,329.3,434.6,329.1,436.1,328.9"/>
	<path class="st5" d="M486.6,282.4l30,21.7c0.6-0.4,1.2-0.9,1.8-1.3l-23.8-44h0L470,213.1l0,0l-22.7-42l-0.8-1.5h0L486.6,282.4z"/>
	<polygon class="st4" points="420.3,180.6 420.3,180.6 420.3,234.5 420.3,234.5 446.5,169.6 420.3,180.6 420.3,180.6 	"/>
	<polygon class="st3" points="370.1,305 404.7,273.1 420.3,234.5 420.3,234.5 420.3,180.6 	"/>
	<path class="st2" d="M420.3,180.6l26.2-11l29.4-72.8c-5.2-4.6-10.6-9.2-16.2-13.7L420.3,180.6z"/>
	<polygon class="st4" points="382.9,219.4 367.4,258 370.1,305 370.1,305 420.3,180.6 382.9,219.4 	"/>
	<path class="st10" d="M409.2,154.5l11.2,26.1l39.4-97.5c-5.4-4.3-10.9-8.5-16.6-12.6L409.2,154.5L409.2,154.5z"/>
	<polygon class="st3" points="301.6,313 370.1,305 350.4,296.9 302.8,277.3 302.8,277.3 302.8,277.3 302.8,277.3 301.6,280.1 	"/>
	<polygon class="st6" points="370.1,305 367.4,258 302.8,277.3 	"/>
	<polygon class="st4" points="301.6,208 301.9,207.8 301.6,207.8 	"/>
	<polygon class="st7" points="301.9,207.8 301.6,208 301.6,225.4 382.9,219.4 301.9,207.8 301.9,207.8 301.9,207.8 	"/>
	<polygon class="st3" points="409.2,154.5 301.6,188.7 301.6,207.8 301.9,207.8 301.9,207.8 	"/>
	<polygon class="st4" points="301.9,207.8 382.9,219.4 409.2,154.5 	"/>
	<polygon class="st4" points="302.8,277.3 301.6,276 301.6,280.1 	"/>
	<polygon class="st6" points="219.1,278.1 219.1,278.1 152.2,306.9 219.2,313.6 219.2,278.3 	"/>
	<polygon class="st3" points="252,203.2 218.7,208.6 218.7,208.6 232.6,215.2 	"/>
	<polygon class="st4" points="232.6,215.2 218.7,208.6 137.9,221.6 138,221.6 219.2,226.1 219.2,223.6 	"/>
	<polygon class="st4" points="219.1,278.1 154.1,259.9 152.2,306.9 219.1,278.1 	"/>
	<polygon class="st5" points="218.7,208.6 252,203.2 256.1,200.7 207.6,186.2 157.9,171.3 112.2,157.6 112.2,157.6 110.5,157.1 
		110.5,157.1 110.5,157.1 110.5,157.1 	"/>
	<polygon class="st3" points="218.7,208.6 110.5,157.1 110.5,157.1 110.5,157.1 110.5,157.1 137.9,221.6 	"/>
	<polygon class="st4" points="110.5,157.1 99.8,183.5 137.9,221.6 137.9,221.6 	"/>
	<polygon class="st3" points="152.2,306.9 152.2,306.9 154.1,259.9 137.9,221.6 137.9,221.6 99.8,183.5 	"/>
	<polygon class="st4" points="100.8,237.3 117.1,275.6 152.2,306.9 152.2,306.9 152.2,306.9 152.2,306.9 99.8,183.5 	"/>
	<path class="st3" d="M132.4,332.1l19.9-25.2l-15.3,6.4l-36.9,15.4C110.7,330.1,121.6,331.2,132.4,332.1"/>
	<path class="st6" d="M152.2,306.9l-35.2-31.3l-27.8,51.6c3.6,0.5,7.2,1.1,10.8,1.5L152.2,306.9z"/>
	<polygon class="st9" points="219.2,278 219.1,278.1 219.1,278.1 219.1,278.1 219.2,278.3 	"/>
	<polygon class="st2" points="110.9,156.1 110.5,157.1 112.2,157.6 	"/>
	<polygon class="st4" points="118.9,61.8 104.2,65.5 115.9,65.3 	"/>
	<polygon class="st3" points="481.8,201.7 481.6,201.5 470,213.1 494.6,258.7 524.7,267.5 526.8,247.2 	"/>
	<polygon class="st6" points="530.9,206.9 481.6,201.5 526.8,247.2 	"/>
	<path class="st8" d="M73.4,172.9L73.4,172.9L73.4,172.9L73.4,172.9L73.4,172.9L73.4,172.9z M9.2,297.2l34.7-67.1l-43.1-3.1l1,52.9
		C2,286.4,4.6,292.1,9.2,297.2z M0.2,196.2l73.3-23.4v0l-58.8-23.4c-8.7,14.1-14,27.3-14.6,38.7L0.2,196.2z"/>
	<path class="st9" d="M73.4,172.9L73.4,172.9L73.4,172.9z M14.6,149.5l58.8,23.4l-26.9-63.2C33.5,123.1,22.6,136.6,14.6,149.5z"/>
	<path class="st3" d="M516.6,304.1l-30-21.7l11.2,31.6C505.1,311.2,511.4,307.8,516.6,304.1"/>
	<path class="st2" d="M99.8,183.5l10.7-26.3L78,80.7c-5.5,4.6-10.9,9.2-16,13.9L99.8,183.5z"/>
	<polygon class="st2" points="100.8,237.3 99.8,183.5 73.4,172.9 85.1,200.3 	"/>
	<path class="st10" d="M73.4,172.9l26.4,10.6L62.1,94.6c-5.4,5-10.6,10-15.5,15L73.4,172.9L73.4,172.9z"/>
	<path class="st4" d="M35.3,286.5l-20.9,15.7c3.7,2.9,8,5.6,12.9,8.1L35.3,286.5z"/>
	<path class="st7" d="M100.8,237.3l-65.5,49.1l-8,23.7c2.4,1.2,4.9,2.3,7.6,3.4L100.8,237.3z"/>
	<path class="st3" d="M14.4,302.1l20.9-15.7L67,191.9l6.4-19.1l0,0l-29.2,57.2l-0.3,0L9.2,297.2C10.7,298.9,12.4,300.6,14.4,302.1"
		/>
	<polygon class="st4" points="35.3,286.5 100.8,237.3 73.4,172.9 73.4,172.9 73.4,172.9 	"/>
	<path class="st7" d="M468.5,160.4l12.1,40.5l50.9-3.7v-10c0-4-0.5-8.1-1.3-12.3L468.5,160.4z"/>
	<polygon class="st6" points="73.4,172.9 44.2,230.1 0.7,226.9 0.2,196.2 	"/>
</g>
</svg>
