<?xml version="1.0" encoding="UTF-8"?>
<!DOCTYPE svg PUBLIC "-//W3C//DTD SVG 1.1//EN" "http://www.w3.org/Graphics/SVG/1.1/DTD/svg11.dtd">
<!-- Creator: CorelDRAW X6 -->
<svg xmlns="http://www.w3.org/2000/svg" xml:space="preserve" width="106.836mm" height="72.1565mm" version="1.1" style="shape-rendering:geometricPrecision; text-rendering:geometricPrecision; image-rendering:optimizeQuality; fill-rule:evenodd; clip-rule:evenodd"
viewBox="0 0 10912 7370"
 xmlns:xlink="http://www.w3.org/1999/xlink">
 <defs>
  <style type="text/css">
   <![CDATA[
    .fil6 {fill:#0060AA;fill-rule:nonzero}
    .fil10 {fill:#006CB5;fill-rule:nonzero}
    .fil0 {fill:#0072BA;fill-rule:nonzero}
    .fil8 {fill:#008DD2;fill-rule:nonzero}
    .fil7 {fill:#0096D4;fill-rule:nonzero}
    .fil1 {fill:#00A0E3;fill-rule:nonzero}
    .fil4 {fill:#0C54A0;fill-rule:nonzero}
    .fil9 {fill:#1CBBEE;fill-rule:nonzero}
    .fil3 {fill:#5FC6F1;fill-rule:nonzero}
    .fil5 {fill:#83D0F4;fill-rule:nonzero}
    .fil2 {fill:#93D5F6;fill-rule:nonzero}
   ]]>
  </style>
   <mask id="id0">
  <linearGradient id="id1" gradientUnits="userSpaceOnUse" x1="2461.2" y1="1447.28" x2="2385.98" y2="1542.68">
   <stop offset="0" style="stop-opacity:1; stop-color:white"/>
   <stop offset="1" style="stop-opacity:0; stop-color:white"/>
  </linearGradient>
    <rect style="fill:url(#id1)" x="2354" y="1454" width="138.233" height="82.2412"/>
   </mask>
   <mask id="id2">
  <linearGradient id="id3" gradientUnits="userSpaceOnUse" x1="2085.09" y1="-275.884" x2="491.496" y2="1745.46">
   <stop offset="0" style="stop-opacity:1; stop-color:white"/>
   <stop offset="1" style="stop-opacity:0; stop-color:white"/>
  </linearGradient>
    <rect style="fill:url(#id3)" x="124" y="-5" width="2328" height="1479"/>
   </mask>
   <mask id="id4">
  <linearGradient id="id5" gradientUnits="userSpaceOnUse" x1="3775" y1="-236.03" x2="1558.19" y2="2575.8">
   <stop offset="0" style="stop-opacity:1; stop-color:white"/>
   <stop offset="1" style="stop-opacity:0; stop-color:white"/>
  </linearGradient>
    <rect style="fill:url(#id5)" x="1242" y="-5" width="2850" height="2349"/>
   </mask>
   <mask id="id6">
  <linearGradient id="id7" gradientUnits="userSpaceOnUse" x1="10752.2" y1="-120.4" x2="10350" y2="389.798">
   <stop offset="0" style="stop-opacity:1; stop-color:white"/>
   <stop offset="1" style="stop-opacity:0; stop-color:white"/>
  </linearGradient>
    <rect style="fill:url(#id7)" x="10180" y="-5" width="742" height="279"/>
   </mask>
   <mask id="id8">
  <linearGradient id="id9" gradientUnits="userSpaceOnUse" x1="9295.31" y1="2701.89" x2="9259.13" y2="2747.77">
   <stop offset="0" style="stop-opacity:1; stop-color:white"/>
   <stop offset="1" style="stop-opacity:0; stop-color:white"/>
  </linearGradient>
    <rect style="fill:url(#id9)" x="9253" y="2688" width="47.9332" height="73.1407"/>
   </mask>
   <mask id="id10">
  <linearGradient id="id11" gradientUnits="userSpaceOnUse" x1="8548.56" y1="4482.56" x2="8547.6" y2="4483.79">
   <stop offset="0" style="stop-opacity:1; stop-color:white"/>
   <stop offset="1" style="stop-opacity:0; stop-color:white"/>
  </linearGradient>
    <rect style="fill:url(#id11)" x="8537" y="4472" width="21.5919" height="21.5"/>
   </mask>
   <mask id="id12">
  <linearGradient id="id13" gradientUnits="userSpaceOnUse" x1="10041.7" y1="-31.3767" x2="9870.2" y2="186.156">
   <stop offset="0" style="stop-opacity:1; stop-color:white"/>
   <stop offset="1" style="stop-opacity:0; stop-color:white"/>
  </linearGradient>
    <rect style="fill:url(#id13)" x="9813" y="-5" width="286" height="164"/>
   </mask>
   <mask id="id14">
  <linearGradient id="id15" gradientUnits="userSpaceOnUse" x1="9845" y1="-24.4824" x2="9684.38" y2="179.262">
   <stop offset="0" style="stop-opacity:1; stop-color:white"/>
   <stop offset="1" style="stop-opacity:0; stop-color:white"/>
  </linearGradient>
    <rect style="fill:url(#id15)" x="9636" y="-5" width="257" height="164"/>
   </mask>
   <mask id="id16">
  <linearGradient id="id17" gradientUnits="userSpaceOnUse" x1="10981.2" y1="3635.45" x2="9835" y2="5089.34">
   <stop offset="0" style="stop-opacity:1; stop-color:white"/>
   <stop offset="1" style="stop-opacity:0; stop-color:white"/>
  </linearGradient>
    <rect style="fill:url(#id17)" x="9894" y="3571" width="1028" height="1584"/>
   </mask>
   <mask id="id18">
  <linearGradient id="id19" gradientUnits="userSpaceOnUse" x1="11050.5" y1="2942.74" x2="10082.1" y2="4171.04">
   <stop offset="0" style="stop-opacity:1; stop-color:white"/>
   <stop offset="1" style="stop-opacity:0; stop-color:white"/>
  </linearGradient>
    <rect style="fill:url(#id19)" x="10210" y="2823" width="712" height="1467"/>
   </mask>
   <mask id="id20">
  <linearGradient id="id21" gradientUnits="userSpaceOnUse" x1="10695.4" y1="1849.18" x2="10080.3" y2="2629.37">
   <stop offset="0" style="stop-opacity:1; stop-color:white"/>
   <stop offset="1" style="stop-opacity:0; stop-color:white"/>
  </linearGradient>
    <rect style="fill:url(#id21)" x="9854" y="2010" width="1069" height="459"/>
   </mask>
   <mask id="id22">
  <linearGradient id="id23" gradientUnits="userSpaceOnUse" x1="10865.6" y1="166.423" x2="10322.2" y2="855.607">
   <stop offset="0" style="stop-opacity:1; stop-color:white"/>
   <stop offset="1" style="stop-opacity:0; stop-color:white"/>
  </linearGradient>
    <rect style="fill:url(#id23)" x="10266" y="193" width="656" height="637"/>
   </mask>
   <mask id="id24">
  <linearGradient id="id25" gradientUnits="userSpaceOnUse" x1="10282.1" y1="2507.11" x2="9224.3" y2="3848.83">
   <stop offset="0" style="stop-opacity:1; stop-color:white"/>
   <stop offset="1" style="stop-opacity:0; stop-color:white"/>
  </linearGradient>
    <rect style="fill:url(#id25)" x="9276" y="2448" width="955" height="1459"/>
   </mask>
   <mask id="id26">
  <linearGradient id="id27" gradientUnits="userSpaceOnUse" x1="8006.18" y1="-182.122" x2="5097.97" y2="3506.68">
   <stop offset="0" style="stop-opacity:1; stop-color:white"/>
   <stop offset="1" style="stop-opacity:0; stop-color:white"/>
  </linearGradient>
    <rect style="fill:url(#id27)" x="4850" y="-5" width="3405" height="3334"/>
   </mask>
   <mask id="id28">
  <linearGradient id="id29" gradientUnits="userSpaceOnUse" x1="9137.4" y1="-20.2641" x2="7289.12" y2="2324.12">
   <stop offset="0" style="stop-opacity:1; stop-color:white"/>
   <stop offset="1" style="stop-opacity:0; stop-color:white"/>
  </linearGradient>
    <rect style="fill:url(#id29)" x="7246" y="-5" width="1934" height="2313"/>
   </mask>
   <mask id="id30">
  <linearGradient id="id31" gradientUnits="userSpaceOnUse" x1="11013.1" y1="282.686" x2="9162.31" y2="2630.2">
   <stop offset="0" style="stop-opacity:1; stop-color:white"/>
   <stop offset="1" style="stop-opacity:0; stop-color:white"/>
  </linearGradient>
    <rect style="fill:url(#id31)" x="9253" y="193" width="1669" height="2527"/>
   </mask>
   <mask id="id32">
  <linearGradient id="id33" gradientUnits="userSpaceOnUse" x1="6775.45" y1="-172.184" x2="4708.53" y2="2449.52">
   <stop offset="0" style="stop-opacity:1; stop-color:white"/>
   <stop offset="1" style="stop-opacity:0; stop-color:white"/>
  </linearGradient>
    <rect style="fill:url(#id33)" x="4473" y="-5" width="2538" height="2287"/>
   </mask>
   <mask id="id34">
  <linearGradient id="id35" gradientUnits="userSpaceOnUse" x1="11029.3" y1="5884.19" x2="10241.9" y2="6882.93">
   <stop offset="0" style="stop-opacity:1; stop-color:white"/>
   <stop offset="1" style="stop-opacity:0; stop-color:white"/>
  </linearGradient>
    <rect style="fill:url(#id35)" x="10349" y="5781" width="573" height="1204"/>
   </mask>
   <mask id="id36">
  <linearGradient id="id37" gradientUnits="userSpaceOnUse" x1="10777.6" y1="4914.63" x2="9151.15" y2="6977.6">
   <stop offset="0" style="stop-opacity:1; stop-color:white"/>
   <stop offset="1" style="stop-opacity:0; stop-color:white"/>
  </linearGradient>
    <rect style="fill:url(#id37)" x="9138" y="4907" width="1652" height="2079"/>
   </mask>
   <mask id="id38">
  <linearGradient id="id39" gradientUnits="userSpaceOnUse" x1="11249.8" y1="2976.38" x2="8925.54" y2="5924.56">
   <stop offset="0" style="stop-opacity:1; stop-color:white"/>
   <stop offset="1" style="stop-opacity:0; stop-color:white"/>
  </linearGradient>
    <rect style="fill:url(#id39)" x="9253" y="2700" width="1669" height="3501"/>
   </mask>
   <mask id="id40">
  <linearGradient id="id41" gradientUnits="userSpaceOnUse" x1="9473.7" y1="2875.68" x2="8337.5" y2="4316.91">
   <stop offset="0" style="stop-opacity:1; stop-color:white"/>
   <stop offset="1" style="stop-opacity:0; stop-color:white"/>
  </linearGradient>
    <rect style="fill:url(#id41)" x="8538" y="2700" width="736" height="1793"/>
   </mask>
   <mask id="id42">
  <linearGradient id="id43" gradientUnits="userSpaceOnUse" x1="8761.8" y1="3178.86" x2="7790.35" y2="4411.03">
   <stop offset="0" style="stop-opacity:1; stop-color:white"/>
   <stop offset="1" style="stop-opacity:0; stop-color:white"/>
  </linearGradient>
    <rect style="fill:url(#id43)" x="7993" y="3001" width="567" height="1588"/>
   </mask>
   <mask id="id44">
  <linearGradient id="id45" gradientUnits="userSpaceOnUse" x1="10067.1" y1="197.667" x2="8000.42" y2="2819.07">
   <stop offset="0" style="stop-opacity:1; stop-color:white"/>
   <stop offset="1" style="stop-opacity:0; stop-color:white"/>
  </linearGradient>
    <rect style="fill:url(#id45)" x="8234" y="-5" width="1600" height="3026"/>
   </mask>
   <mask id="id46">
  <linearGradient id="id47" gradientUnits="userSpaceOnUse" x1="6978.66" y1="3334.3" x2="5954.2" y2="4633.72">
   <stop offset="0" style="stop-opacity:1; stop-color:white"/>
   <stop offset="1" style="stop-opacity:0; stop-color:white"/>
  </linearGradient>
    <rect style="fill:url(#id47)" x="5394" y="3757" width="2144" height="453"/>
   </mask>
   <mask id="id48">
  <linearGradient id="id49" gradientUnits="userSpaceOnUse" x1="7603.04" y1="1792.92" x2="5679.5" y2="4232.74">
   <stop offset="0" style="stop-opacity:1; stop-color:white"/>
   <stop offset="1" style="stop-opacity:0; stop-color:white"/>
  </linearGradient>
    <rect style="fill:url(#id49)" x="5028" y="2288" width="3226" height="1449"/>
   </mask>
   <mask id="id50">
  <linearGradient id="id51" gradientUnits="userSpaceOnUse" x1="7789.29" y1="1939.76" x2="5826.37" y2="4429.63">
   <stop offset="0" style="stop-opacity:1; stop-color:white"/>
   <stop offset="1" style="stop-opacity:0; stop-color:white"/>
  </linearGradient>
    <rect style="fill:url(#id51)" x="5361" y="2288" width="2893" height="1793"/>
   </mask>
   <mask id="id52">
  <linearGradient id="id53" gradientUnits="userSpaceOnUse" x1="2093" y1="-269.633" x2="348.984" y2="1942.5">
   <stop offset="0" style="stop-opacity:1; stop-color:white"/>
   <stop offset="1" style="stop-opacity:0; stop-color:white"/>
  </linearGradient>
    <rect style="fill:url(#id53)" x="-10" y="-5" width="2462" height="1682"/>
   </mask>
   <mask id="id54">
  <linearGradient id="id55" gradientUnits="userSpaceOnUse" x1="10993.9" y1="5067.13" x2="10495.3" y2="5699.5">
   <stop offset="0" style="stop-opacity:1; stop-color:white"/>
   <stop offset="1" style="stop-opacity:0; stop-color:white"/>
  </linearGradient>
    <rect style="fill:url(#id55)" x="10567" y="4992" width="355" height="782"/>
   </mask>
   <mask id="id56">
  <linearGradient id="id57" gradientUnits="userSpaceOnUse" x1="10861.5" y1="2418.94" x2="9914.18" y2="3620.55">
   <stop offset="0" style="stop-opacity:1; stop-color:white"/>
   <stop offset="1" style="stop-opacity:0; stop-color:white"/>
  </linearGradient>
    <rect style="fill:url(#id57)" x="9854" y="2448" width="1069" height="1143"/>
   </mask>
   <mask id="id58">
  <linearGradient id="id59" gradientUnits="userSpaceOnUse" x1="8261.11" y1="5045.09" x2="6252.21" y2="7593.21">
   <stop offset="0" style="stop-opacity:1; stop-color:white"/>
   <stop offset="1" style="stop-opacity:0; stop-color:white"/>
  </linearGradient>
    <rect style="fill:url(#id59)" x="5958" y="5259" width="2597" height="2121"/>
   </mask>
   <mask id="id60">
  <linearGradient id="id61" gradientUnits="userSpaceOnUse" x1="9249.24" y1="5341.18" x2="7684.58" y2="7325.82">
   <stop offset="0" style="stop-opacity:1; stop-color:white"/>
   <stop offset="1" style="stop-opacity:0; stop-color:white"/>
  </linearGradient>
    <rect style="fill:url(#id61)" x="7720" y="5295" width="1494" height="2077"/>
   </mask>
   <mask id="id62">
  <linearGradient id="id63" gradientUnits="userSpaceOnUse" x1="6135.85" y1="2858.88" x2="5166.38" y2="4088.56">
   <stop offset="0" style="stop-opacity:1; stop-color:white"/>
   <stop offset="1" style="stop-opacity:0; stop-color:white"/>
  </linearGradient>
    <rect style="fill:url(#id63)" x="4850" y="3090" width="1603" height="767"/>
   </mask>
   <mask id="id64">
  <linearGradient id="id65" gradientUnits="userSpaceOnUse" x1="7333.25" y1="3581.86" x2="5805.48" y2="5519.7">
   <stop offset="0" style="stop-opacity:1; stop-color:white"/>
   <stop offset="1" style="stop-opacity:0; stop-color:white"/>
  </linearGradient>
    <rect style="fill:url(#id65)" x="5459" y="3837" width="2221" height="1428"/>
   </mask>
   <mask id="id66">
  <linearGradient id="id67" gradientUnits="userSpaceOnUse" x1="6899.91" y1="4631.14" x2="5340.8" y2="6608.79">
   <stop offset="0" style="stop-opacity:1; stop-color:white"/>
   <stop offset="1" style="stop-opacity:0; stop-color:white"/>
  </linearGradient>
    <rect style="fill:url(#id67)" x="4561" y="5228" width="3119" height="785"/>
   </mask>
   <mask id="id68">
  <linearGradient id="id69" gradientUnits="userSpaceOnUse" x1="7627.81" y1="5099.15" x2="6142.3" y2="6983.38">
   <stop offset="0" style="stop-opacity:1; stop-color:white"/>
   <stop offset="1" style="stop-opacity:0; stop-color:white"/>
  </linearGradient>
    <rect style="fill:url(#id69)" x="5958" y="5226" width="1854" height="1630"/>
   </mask>
   <mask id="id70">
  <linearGradient id="id71" gradientUnits="userSpaceOnUse" x1="6727.62" y1="2078.64" x2="3765.59" y2="5835.61">
   <stop offset="0" style="stop-opacity:1; stop-color:white"/>
   <stop offset="1" style="stop-opacity:0; stop-color:white"/>
  </linearGradient>
    <rect style="fill:url(#id71)" x="3865" y="1982" width="2763" height="3951"/>
   </mask>
   <mask id="id72">
  <linearGradient id="id73" gradientUnits="userSpaceOnUse" x1="7515.09" y1="3042.01" x2="7482.41" y2="3083.46">
   <stop offset="0" style="stop-opacity:1; stop-color:white"/>
   <stop offset="1" style="stop-opacity:0; stop-color:white"/>
  </linearGradient>
    <rect style="fill:url(#id73)" x="7469" y="3034" width="59.965" height="56.4719"/>
   </mask>
   <mask id="id74">
  <linearGradient id="id75" gradientUnits="userSpaceOnUse" x1="3802.37" y1="1242.14" x2="3116.74" y2="2111.8">
   <stop offset="0" style="stop-opacity:1; stop-color:white"/>
   <stop offset="1" style="stop-opacity:0; stop-color:white"/>
  </linearGradient>
    <rect style="fill:url(#id75)" x="2954" y="1352" width="1011" height="650"/>
   </mask>
   <mask id="id76">
  <linearGradient id="id77" gradientUnits="userSpaceOnUse" x1="7487.76" y1="3051.39" x2="5650.96" y2="5381.21">
   <stop offset="0" style="stop-opacity:1; stop-color:white"/>
   <stop offset="1" style="stop-opacity:0; stop-color:white"/>
  </linearGradient>
    <rect style="fill:url(#id77)" x="5459" y="3184" width="2221" height="2064"/>
   </mask>
   <mask id="id78">
  <linearGradient id="id79" gradientUnits="userSpaceOnUse" x1="6061.57" y1="1102.5" x2="4274.32" y2="3369.41">
   <stop offset="0" style="stop-opacity:1; stop-color:white"/>
   <stop offset="1" style="stop-opacity:0; stop-color:white"/>
  </linearGradient>
    <rect style="fill:url(#id79)" x="3935" y="1352" width="2467" height="1768"/>
   </mask>
   <mask id="id80">
  <linearGradient id="id81" gradientUnits="userSpaceOnUse" x1="9948.71" y1="6352.64" x2="9948.14" y2="6353.38">
   <stop offset="0" style="stop-opacity:1; stop-color:white"/>
   <stop offset="1" style="stop-opacity:0; stop-color:white"/>
  </linearGradient>
    <rect style="fill:url(#id81)" x="9938" y="6342" width="20.9893" height="21.1935"/>
   </mask>
   <mask id="id82">
  <linearGradient id="id83" gradientUnits="userSpaceOnUse" x1="7491.47" y1="4350.07" x2="7246.55" y2="4660.75">
   <stop offset="0" style="stop-opacity:1; stop-color:white"/>
   <stop offset="1" style="stop-opacity:0; stop-color:white"/>
  </linearGradient>
    <rect style="fill:url(#id83)" x="7100" y="4447" width="537" height="117"/>
   </mask>
   <mask id="id84">
  <linearGradient id="id85" gradientUnits="userSpaceOnUse" x1="8689.25" y1="4032.56" x2="7577.22" y2="5443.08">
   <stop offset="0" style="stop-opacity:1; stop-color:white"/>
   <stop offset="1" style="stop-opacity:0; stop-color:white"/>
  </linearGradient>
    <rect style="fill:url(#id85)" x="7518" y="4061" width="1230" height="1354"/>
   </mask>
   <mask id="id86">
  <linearGradient id="id87" gradientUnits="userSpaceOnUse" x1="8723.98" y1="4736.15" x2="6624.91" y2="7398.63">
   <stop offset="0" style="stop-opacity:1; stop-color:white"/>
   <stop offset="1" style="stop-opacity:0; stop-color:white"/>
  </linearGradient>
    <rect style="fill:url(#id87)" x="6578" y="4755" width="2192" height="2625"/>
   </mask>
   <mask id="id88">
  <linearGradient id="id89" gradientUnits="userSpaceOnUse" x1="10554.9" y1="4283.9" x2="10554.5" y2="4284.39">
   <stop offset="0" style="stop-opacity:1; stop-color:white"/>
   <stop offset="1" style="stop-opacity:0; stop-color:white"/>
  </linearGradient>
    <rect style="fill:url(#id89)" x="10544" y="4274" width="20.9178" height="20.8463"/>
   </mask>
   <mask id="id90">
  <linearGradient id="id91" gradientUnits="userSpaceOnUse" x1="9218.16" y1="4610.58" x2="8705.64" y2="5260.69">
   <stop offset="0" style="stop-opacity:1; stop-color:white"/>
   <stop offset="1" style="stop-opacity:0; stop-color:white"/>
  </linearGradient>
    <rect style="fill:url(#id91)" x="8750" y="4557" width="424" height="757"/>
   </mask>
   <mask id="id92">
  <linearGradient id="id93" gradientUnits="userSpaceOnUse" x1="10051" y1="4997.59" x2="9045.91" y2="6272.47">
   <stop offset="0" style="stop-opacity:1; stop-color:white"/>
   <stop offset="1" style="stop-opacity:0; stop-color:white"/>
  </linearGradient>
    <rect style="fill:url(#id93)" x="9138" y="4907" width="820" height="1457"/>
   </mask>
   <mask id="id94">
  <linearGradient id="id95" gradientUnits="userSpaceOnUse" x1="9687.48" y1="5119.31" x2="8310.57" y2="6865.86">
   <stop offset="0" style="stop-opacity:1; stop-color:white"/>
   <stop offset="1" style="stop-opacity:0; stop-color:white"/>
  </linearGradient>
    <rect style="fill:url(#id95)" x="8750" y="4755" width="498" height="2476"/>
   </mask>
   <mask id="id96">
  <linearGradient id="id97" gradientUnits="userSpaceOnUse" x1="10172.4" y1="5480.27" x2="8939.62" y2="7043.94">
   <stop offset="0" style="stop-opacity:1; stop-color:white"/>
   <stop offset="1" style="stop-opacity:0; stop-color:white"/>
  </linearGradient>
    <rect style="fill:url(#id97)" x="9153" y="5294" width="805" height="1937"/>
   </mask>
   <mask id="id98">
  <linearGradient id="id99" gradientUnits="userSpaceOnUse" x1="10310.4" y1="6363.38" x2="9677.24" y2="7166.48">
   <stop offset="0" style="stop-opacity:1; stop-color:white"/>
   <stop offset="1" style="stop-opacity:0; stop-color:white"/>
  </linearGradient>
    <rect style="fill:url(#id99)" x="9680" y="6343" width="628" height="844"/>
   </mask>
   <mask id="id100">
  <linearGradient id="id101" gradientUnits="userSpaceOnUse" x1="10393.7" y1="6394.17" x2="9743.6" y2="7218.81">
   <stop offset="0" style="stop-opacity:1; stop-color:white"/>
   <stop offset="1" style="stop-opacity:0; stop-color:white"/>
  </linearGradient>
    <rect style="fill:url(#id101)" x="9680" y="6426" width="777" height="761"/>
   </mask>
   <mask id="id102">
  <linearGradient id="id103" gradientUnits="userSpaceOnUse" x1="9022.88" y1="4391.85" x2="8659.74" y2="4852.47">
   <stop offset="0" style="stop-opacity:1; stop-color:white"/>
   <stop offset="1" style="stop-opacity:0; stop-color:white"/>
  </linearGradient>
    <rect style="fill:url(#id103)" x="8538" y="4470" width="608" height="304"/>
   </mask>
   <mask id="id104">
  <linearGradient id="id105" gradientUnits="userSpaceOnUse" x1="8978.49" y1="4805.05" x2="8317.96" y2="5642.91">
   <stop offset="0" style="stop-opacity:1; stop-color:white"/>
   <stop offset="1" style="stop-opacity:0; stop-color:white"/>
  </linearGradient>
    <rect style="fill:url(#id105)" x="8358" y="4755" width="580" height="938"/>
   </mask>
   <mask id="id106">
  <linearGradient id="id107" gradientUnits="userSpaceOnUse" x1="6586.52" y1="3527.22" x2="5874.8" y2="4429.97">
   <stop offset="0" style="stop-opacity:1; stop-color:white"/>
   <stop offset="1" style="stop-opacity:0; stop-color:white"/>
  </linearGradient>
    <rect style="fill:url(#id107)" x="5459" y="3837" width="1543" height="284"/>
   </mask>
   <mask id="id108">
  <linearGradient id="id109" gradientUnits="userSpaceOnUse" x1="3154.78" y1="739.497" x2="1788.22" y2="2472.89">
   <stop offset="0" style="stop-opacity:1; stop-color:white"/>
   <stop offset="1" style="stop-opacity:0; stop-color:white"/>
  </linearGradient>
    <rect style="fill:url(#id109)" x="988" y="1352" width="2967" height="508"/>
   </mask>
   <mask id="id110">
  <linearGradient id="id111" gradientUnits="userSpaceOnUse" x1="10195.8" y1="3099.59" x2="8692.99" y2="5005.8">
   <stop offset="0" style="stop-opacity:1; stop-color:white"/>
   <stop offset="1" style="stop-opacity:0; stop-color:white"/>
  </linearGradient>
    <rect style="fill:url(#id111)" x="9125" y="2741" width="639" height="2623"/>
   </mask>
   <mask id="id112">
  <linearGradient id="id113" gradientUnits="userSpaceOnUse" x1="5424.89" y1="3812.09" x2="3938.73" y2="5697.22">
   <stop offset="0" style="stop-opacity:1; stop-color:white"/>
   <stop offset="1" style="stop-opacity:0; stop-color:white"/>
  </linearGradient>
    <rect style="fill:url(#id113)" x="3884" y="3837" width="1595" height="1836"/>
   </mask>
   <mask id="id114">
  <linearGradient id="id115" gradientUnits="userSpaceOnUse" x1="7558.43" y1="931.342" x2="5870.62" y2="3072.19">
   <stop offset="0" style="stop-opacity:1; stop-color:white"/>
   <stop offset="1" style="stop-opacity:0; stop-color:white"/>
  </linearGradient>
    <rect style="fill:url(#id115)" x="5714" y="1037" width="2002" height="1930"/>
   </mask>
   <mask id="id116">
  <linearGradient id="id117" gradientUnits="userSpaceOnUse" x1="90.0649" y1="-0.0102138" x2="89.4317" y2="0.786459">
   <stop offset="0" style="stop-opacity:1; stop-color:white"/>
   <stop offset="1" style="stop-opacity:0; stop-color:white"/>
  </linearGradient>
    <rect style="fill:url(#id117)" x="79" y="-10" width="21.0914" height="21.2038"/>
   </mask>
 </defs>
 <g id="Слой_x0020_1">
  <metadata id="CorelCorpID_0Corel-Layer"/>
  <polygon class="fil0" style="mask:url(#id0)" points="2482,1514 2442,1464 2365,1526 "/>
  <polygon class="fil1" style="mask:url(#id2)" points="135,5 2442,1464 2278,1263 1297,60 1252,5 "/>
  <path class="fil2" style="mask:url(#id4)" d="M1252 5l45 55 1145 1404 41 50 1462 -151 0 0 0 0 137 -1357 -2830 0zm1844 2260l45 55 0 0 11 14m598 -372l0 0 -49 -7 49 7z"/>
  <polygon class="fil3" style="mask:url(#id6)" points="10276,203 10912,264 10912,6 10190,6 "/>
  <polygon class="fil4" style="mask:url(#id8)" points="9291,2698 9263,2710 9286,2751 "/>
  <polygon class="fil4" style="mask:url(#id10)" points="8547,4483 8549,4484 8548,4483 8548,4483 "/>
  <polygon class="fil1" style="mask:url(#id12)" points="9883,6 9823,149 10088,6 "/>
  <polygon class="fil2" style="mask:url(#id14)" points="9823,149 9883,6 9646,6 "/>
  <polygon class="fil5" style="mask:url(#id16)" points="10445,3808 10221,3581 9904,3897 10577,5144 10912,5003 10912,4280 "/>
  <polygon class="fil0" style="mask:url(#id18)" points="10912,2833 10859,2891 10221,3581 10912,4280 "/>
  <polygon class="fil6" style="mask:url(#id20)" points="10912,2020 9864,2459 10912,2164 "/>
  <polygon class="fil5" style="mask:url(#id22)" points="10912,264 10276,203 10276,203 10285,212 10854,763 10909,817 10909,817 10912,819 "/>
  <path class="fil7" style="mask:url(#id24)" d="M9904 3897l316 -316 -357 -1122 -302 126 -271 113 -5 53 0 0m0 0l488 904 130 242 0 0m-613 -1199l-5 53z"/>
  <path class="fil3" style="mask:url(#id26)" d="M8244 2298l0 0 0 0 0 0zm0 0l-988 -2293 -256 0 -1129 1435 -148 189 1981 -582 -1528 1910 -453 -1328 -506 643 959 685 2067 -658 0 0zm-3026 -26l0 0zm-358 829l178 219 0 0 -178 -219 0 0zm0 0l728 43 120 -38 -849 -5z"/>
  <polygon class="fil8" style="mask:url(#id28)" points="7256,5 8244,2298 8244,2298 8244,2298 8244,2298 8244,2298 8919,627 9170,5 "/>
  <polygon class="fil9" style="mask:url(#id30)" points="9263,2710 9291,2698 9864,2459 10912,2020 10912,819 10909,817 10285,212 10276,203 "/>
  <polygon class="fil1" style="mask:url(#id32)" points="5218,2272 5218,2272 5218,2272 5724,1629 5724,1629 5724,1629 7001,5 4483,5 "/>
  <path class="fil5" style="mask:url(#id34)" d="M10912 6191l-553 -399 369 1036 162 38 22 -22 0 -652zm-155 719l23 66 37 -37 -60 -29z"/>
  <path class="fil7" style="mask:url(#id36)" d="M10780 6975l-23 -66 -46 -22 69 88zm-52 -148l-369 -1036 -605 -437 0 0 0 0 -605 -437 1500 1893 79 19z"/>
  <path class="fil10" style="mask:url(#id38)" d="M10359 5792l553 399 0 -427 -335 -620 -673 -1247 -619 -1146 8 43 1066 2997zm-1074 -3040l0 0 -22 -41 0 0 21 59 1 -12 0 -5z"/>
  <path class="fil1" style="mask:url(#id40)" d="M9263 2710l-714 301 0 0 0 0 -1 1469 1 1 -1 2 0 -2 0 0 1 0 715 -1770zm-714 301l0 0 0 0 0 0z"/>
  <polygon class="fil5" style="mask:url(#id42)" points="8351,4579 8547,4483 8548,4483 8548,4480 8549,3011 8003,4364 "/>
  <polygon class="fil9" style="mask:url(#id44)" points="8244,2298 8549,3011 9823,149 9646,5 9170,5 "/>
  <path class="fil6" style="mask:url(#id46)" d="M5757 4200l-42 -52 -246 -301m0 0l-65 -79 0 0 65 79 0 0 246 301m1277 -38l536 -39 -612 -87 76 127 0 0z"/>
  <path class="fil5" style="mask:url(#id48)" d="M8244 2298l0 0 0 0 0 0zm0 0l-2067 658 214 153 -682 -4 -120 38 853 51 1802 -896zm-3206 1021l0 0 333 408 0 0 -333 -408z"/>
  <path class="fil7" style="mask:url(#id50)" d="M5404 3768l0 0 -33 -40 0 0 33 40zm2104 -687l10 -24 -40 -12 30 36zm-593 903l612 87 716 -1773 -1802 896 0 0 0 0 0 0 474 789z"/>
  <polygon class="fil7" style="mask:url(#id52)" points="2365,1526 2442,1464 135,5 0,5 998,1667 1036,1575 1396,1626 "/>
  <polygon class="fil7" style="mask:url(#id54)" points="10912,5003 10577,5144 10912,5764 "/>
  <polygon class="fil5" style="mask:url(#id56)" points="10912,2546 9864,2459 10221,3581 10912,2833 "/>
  <path class="fil3" style="mask:url(#id58)" d="M6716 6354l-748 493 22 7 1654 514 -532 -581 -396 -433zm1103 807l617 -1406 -39 -75 -29 3 14 -32 -255 596 -418 977 109 -63zm726 -1892l0 0 -163 382m-2414 1196l0 0 0 0 0 0zm1683 523l0 0 79 -7 0 0 -79 7z"/>
  <path class="fil1" style="mask:url(#id60)" d="M8633 5305l-150 341m416 -165l-14 -73 -252 -104m454 1139l0 0 92 475 -92 -475zm109 -313l8 205m-349 229l-419 -811 -617 1406 1036 -595zm-946 663l305 9 0 0 -305 -9zm-178 133l0 0 114 -11 0 0 -114 11z"/>
  <polygon class="fil0" style="mask:url(#id62)" points="4860,3100 5469,3847 6442,3195 4860,3100 "/>
  <path class="fil1" style="mask:url(#id64)" d="M6618 5255l1052 -17 0 0 0 0 0 0 -2200 -1391 0 0 285 350 713 874 150 184zm-1148 -1408l0 0 0 0 0 0z"/>
  <polygon class="fil6" style="mask:url(#id66)" points="6618,5255 4571,5784 4571,6002 7318,5325 7318,5325 7670,5238 "/>
  <polygon class="fil5" style="mask:url(#id68)" points="7670,5238 7318,5325 7318,5325 7318,5325 5968,6846 6716,6354 6685,6319 6588,6214 7802,5405 7767,5236 "/>
  <path class="fil2" style="mask:url(#id70)" d="M6618 5255l-150 -184 -998 -1224 -429 1815 469 -121 1108 -286zm-1149 -1408l-609 -747 0 0 0 0 -905 -1108 -80 3930 696 -139 469 -121 -1146 -424 1575 -1391z"/>
  <polygon class="fil4" style="mask:url(#id72)" points="7509,3081 7519,3056 7479,3045 "/>
  <polygon class="fil7" style="mask:url(#id74)" points="3945,1362 3925,1372 2964,1850 3549,1934 3955,1992 "/>
  <polygon class="fil7" style="mask:url(#id76)" points="6442,3195 5469,3847 5469,3847 6916,3984 6992,4110 5469,3847 7670,5238 7212,4476 7111,4457 7111,4457 7212,4476 "/>
  <polygon class="fil5" style="mask:url(#id78)" points="3945,1362 3955,1992 4860,3100 6391,3110 "/>
  <polygon class="fil4" style="mask:url(#id80)" points="9949,6353 9948,6353 9948,6353 9948,6353 9948,6353 9949,6353 "/>
  <polygon class="fil7" style="mask:url(#id82)" points="7111,4457 7111,4457 7627,4554 7627,4553 "/>
  <path class="fil3" style="mask:url(#id84)" d="M8681 4950l0 0 57 -132 0 0 -57 132zm27 -151l-1180 -728 273 1334 907 -605z"/>
  <polygon class="fil2" style="mask:url(#id86)" points="8127,6246 8382,5651 8511,5350 8760,4765 8760,4765 8760,4765 8760,4765 6588,6214 6685,6319 7112,6786 7647,7370 7647,7370 7647,7370 7709,7223 "/>
  <polygon class="fil0" style="mask:url(#id88)" points="10555,4284 10555,4284 10555,4284 10554,4284 "/>
  <polygon class="fil5" style="mask:url(#id90)" points="8760,4765 8760,4765 9163,5304 9135,4567 "/>
  <polygon class="fil7" style="mask:url(#id92)" points="9148,4917 9163,5304 9948,6353 9948,6353 "/>
  <polygon class="fil10" style="mask:url(#id94)" points="9163,5304 8760,4765 8760,4765 8760,4765 8760,4765 8760,4765 8928,5628 9087,6444 9233,7193 9238,7220 "/>
  <path class="fil5" style="mask:url(#id96)" d="M9163 5304l74 1917 711 -867 -785 -1050zm785 1050l0 0 0 0 0 0z"/>
  <polygon class="fil5" style="mask:url(#id98)" points="10297,6436 9949,6353 9948,6353 9690,7177 10297,6436 "/>
  <polygon class="fil7" style="mask:url(#id100)" points="10447,6762 10297,6436 9690,7177 "/>
  <polygon class="fil7" style="mask:url(#id102)" points="8548,4480 8760,4764 9135,4567 "/>
  <polygon class="fil7" style="mask:url(#id104)" points="8368,5683 8928,5628 8760,4765 "/>
  <polygon class="fil0" style="mask:url(#id106)" points="5469,3847 6992,4110 6916,3984 "/>
  <polygon class="fil6" style="mask:url(#id108)" points="2964,1850 3945,1362 998,1667 "/>
  <polygon class="fil7" style="mask:url(#id110)" points="9754,5354 9286,2751 9135,4567 "/>
  <polygon class="fil1" style="mask:url(#id112)" points="5041,5662 3894,5238 5469,3847 "/>
  <polygon class="fil7" style="mask:url(#id114)" points="7705,1047 5724,1629 6177,2957 "/>
  <polygon class="fil0" style="mask:url(#id116)" points="90,0 90,0 90,0 89,1 "/>
 </g>
</svg>
