<?xml version="1.0" encoding="UTF-8"?>
<!DOCTYPE svg PUBLIC "-//W3C//DTD SVG 1.1//EN" "http://www.w3.org/Graphics/SVG/1.1/DTD/svg11.dtd">
<!-- Creator: CorelDRAW X6 -->
<svg xmlns="http://www.w3.org/2000/svg" xml:space="preserve" width="106.836mm" height="72.1565mm" version="1.1" style="shape-rendering:geometricPrecision; text-rendering:geometricPrecision; image-rendering:optimizeQuality; fill-rule:evenodd; clip-rule:evenodd"
viewBox="0 0 3664 2474"
 xmlns:xlink="http://www.w3.org/1999/xlink">
 <defs>
  <style type="text/css">
   <![CDATA[
    .fil6 {fill:#0060AA;fill-rule:nonzero}
    .fil10 {fill:#006CB5;fill-rule:nonzero}
    .fil0 {fill:#0072BA;fill-rule:nonzero}
    .fil8 {fill:#008DD2;fill-rule:nonzero}
    .fil7 {fill:#0096D4;fill-rule:nonzero}
    .fil1 {fill:#00A0E3;fill-rule:nonzero}
    .fil4 {fill:#0C54A0;fill-rule:nonzero}
    .fil9 {fill:#1CBBEE;fill-rule:nonzero}
    .fil3 {fill:#5FC6F1;fill-rule:nonzero}
    .fil5 {fill:#83D0F4;fill-rule:nonzero}
    .fil2 {fill:#93D5F6;fill-rule:nonzero}
   ]]>
  </style>
   <mask id="id0">
  <linearGradient id="id1" gradientUnits="userSpaceOnUse" x1="2837.31" y1="485.92" x2="2862.56" y2="517.95">
   <stop offset="0" style="stop-opacity:1; stop-color:white"/>
   <stop offset="1" style="stop-opacity:0; stop-color:white"/>
  </linearGradient>
    <rect style="fill:url(#id1)" x="2827" y="488" width="46.4114" height="27.6123"/>
   </mask>
   <mask id="id2">
  <linearGradient id="id3" gradientUnits="userSpaceOnUse" x1="2963.59" y1="-92.6273" x2="3498.63" y2="586.034">
   <stop offset="0" style="stop-opacity:1; stop-color:white"/>
   <stop offset="1" style="stop-opacity:0; stop-color:white"/>
  </linearGradient>
    <rect style="fill:url(#id3)" x="2840" y="-2" width="782" height="497"/>
   </mask>
   <mask id="id4">
  <linearGradient id="id5" gradientUnits="userSpaceOnUse" x1="2396.2" y1="-79.2464" x2="3140.49" y2="864.818">
   <stop offset="0" style="stop-opacity:1; stop-color:white"/>
   <stop offset="1" style="stop-opacity:0; stop-color:white"/>
  </linearGradient>
    <rect style="fill:url(#id5)" x="2290" y="-2" width="957" height="789"/>
   </mask>
   <mask id="id6">
  <linearGradient id="id7" gradientUnits="userSpaceOnUse" x1="53.6231" y1="-40.4239" x2="188.667" y2="130.874">
   <stop offset="0" style="stop-opacity:1; stop-color:white"/>
   <stop offset="1" style="stop-opacity:0; stop-color:white"/>
  </linearGradient>
    <rect style="fill:url(#id7)" x="-3" y="-2" width="249.148" height="93.6081"/>
   </mask>
   <mask id="id8">
  <linearGradient id="id9" gradientUnits="userSpaceOnUse" x1="542.774" y1="907.152" x2="554.92" y2="922.556">
   <stop offset="0" style="stop-opacity:1; stop-color:white"/>
   <stop offset="1" style="stop-opacity:0; stop-color:white"/>
  </linearGradient>
    <rect style="fill:url(#id9)" x="541" y="903" width="16.0934" height="24.5568"/>
   </mask>
   <mask id="id10">
  <linearGradient id="id11" gradientUnits="userSpaceOnUse" x1="793.493" y1="1505.01" x2="793.815" y2="1505.42">
   <stop offset="0" style="stop-opacity:1; stop-color:white"/>
   <stop offset="1" style="stop-opacity:0; stop-color:white"/>
  </linearGradient>
    <rect style="fill:url(#id11)" x="790" y="1502" width="7.24942" height="7.21856"/>
   </mask>
   <mask id="id12">
  <linearGradient id="id13" gradientUnits="userSpaceOnUse" x1="292.172" y1="-10.5346" x2="349.755" y2="62.5014">
   <stop offset="0" style="stop-opacity:1; stop-color:white"/>
   <stop offset="1" style="stop-opacity:0; stop-color:white"/>
  </linearGradient>
    <rect style="fill:url(#id13)" x="273" y="-2" width="95.8611" height="55.1285"/>
   </mask>
   <mask id="id14">
  <linearGradient id="id15" gradientUnits="userSpaceOnUse" x1="358.215" y1="-8.2199" x2="412.144" y2="60.1867">
   <stop offset="0" style="stop-opacity:1; stop-color:white"/>
   <stop offset="1" style="stop-opacity:0; stop-color:white"/>
  </linearGradient>
    <rect style="fill:url(#id15)" x="342" y="-2" width="86.3381" height="55.1251"/>
   </mask>
   <mask id="id16">
  <linearGradient id="id17" gradientUnits="userSpaceOnUse" x1="-23.2606" y1="1220.6" x2="361.576" y2="1708.73">
   <stop offset="0" style="stop-opacity:1; stop-color:white"/>
   <stop offset="1" style="stop-opacity:0; stop-color:white"/>
  </linearGradient>
    <rect style="fill:url(#id17)" x="-3" y="1199" width="345" height="532"/>
   </mask>
   <mask id="id18">
  <linearGradient id="id19" gradientUnits="userSpaceOnUse" x1="-46.5348" y1="988.017" x2="278.606" y2="1400.42">
   <stop offset="0" style="stop-opacity:1; stop-color:white"/>
   <stop offset="1" style="stop-opacity:0; stop-color:white"/>
  </linearGradient>
    <rect style="fill:url(#id19)" x="-3" y="948" width="239" height="493"/>
   </mask>
   <mask id="id20">
  <linearGradient id="id21" gradientUnits="userSpaceOnUse" x1="72.6965" y1="620.858" x2="279.213" y2="882.804">
   <stop offset="0" style="stop-opacity:1; stop-color:white"/>
   <stop offset="1" style="stop-opacity:0; stop-color:white"/>
  </linearGradient>
    <rect style="fill:url(#id21)" x="-3" y="675" width="359" height="154"/>
   </mask>
   <mask id="id22">
  <linearGradient id="id23" gradientUnits="userSpaceOnUse" x1="15.5482" y1="55.8761" x2="197.984" y2="287.268">
   <stop offset="0" style="stop-opacity:1; stop-color:white"/>
   <stop offset="1" style="stop-opacity:0; stop-color:white"/>
  </linearGradient>
    <rect style="fill:url(#id23)" x="-3" y="65" width="220" height="214"/>
   </mask>
   <mask id="id24">
  <linearGradient id="id25" gradientUnits="userSpaceOnUse" x1="211.454" y1="841.756" x2="566.614" y2="1292.24">
   <stop offset="0" style="stop-opacity:1; stop-color:white"/>
   <stop offset="1" style="stop-opacity:0; stop-color:white"/>
  </linearGradient>
    <rect style="fill:url(#id25)" x="229" y="822" width="321" height="490"/>
   </mask>
   <mask id="id26">
  <linearGradient id="id27" gradientUnits="userSpaceOnUse" x1="975.596" y1="-61.1469" x2="1952.02" y2="1177.36">
   <stop offset="0" style="stop-opacity:1; stop-color:white"/>
   <stop offset="1" style="stop-opacity:0; stop-color:white"/>
  </linearGradient>
    <rect style="fill:url(#id27)" x="892" y="-2" width="1143" height="1119"/>
   </mask>
   <mask id="id28">
  <linearGradient id="id29" gradientUnits="userSpaceOnUse" x1="595.79" y1="-6.80362" x2="1216.35" y2="780.318">
   <stop offset="0" style="stop-opacity:1; stop-color:white"/>
   <stop offset="1" style="stop-opacity:0; stop-color:white"/>
  </linearGradient>
    <rect style="fill:url(#id29)" x="581" y="-2" width="649" height="777"/>
   </mask>
   <mask id="id30">
  <linearGradient id="id31" gradientUnits="userSpaceOnUse" x1="-33.9598" y1="94.9112" x2="587.426" y2="883.082">
   <stop offset="0" style="stop-opacity:1; stop-color:white"/>
   <stop offset="1" style="stop-opacity:0; stop-color:white"/>
  </linearGradient>
    <rect style="fill:url(#id31)" x="-3" y="65" width="560" height="849"/>
   </mask>
   <mask id="id32">
  <linearGradient id="id33" gradientUnits="userSpaceOnUse" x1="1388.82" y1="-57.8136" x2="2082.77" y2="822.425">
   <stop offset="0" style="stop-opacity:1; stop-color:white"/>
   <stop offset="1" style="stop-opacity:0; stop-color:white"/>
  </linearGradient>
    <rect style="fill:url(#id33)" x="1310" y="-2" width="852" height="768"/>
   </mask>
   <mask id="id34">
  <linearGradient id="id35" gradientUnits="userSpaceOnUse" x1="-39.4089" y1="1975.6" x2="224.958" y2="2310.92">
   <stop offset="0" style="stop-opacity:1; stop-color:white"/>
   <stop offset="1" style="stop-opacity:0; stop-color:white"/>
  </linearGradient>
    <rect style="fill:url(#id35)" x="-3" y="1941" width="192" height="404"/>
   </mask>
   <mask id="id36">
  <linearGradient id="id37" gradientUnits="userSpaceOnUse" x1="45.0946" y1="1650.07" x2="591.174" y2="2342.71">
   <stop offset="0" style="stop-opacity:1; stop-color:white"/>
   <stop offset="1" style="stop-opacity:0; stop-color:white"/>
  </linearGradient>
    <rect style="fill:url(#id37)" x="41" y="1647" width="555" height="698"/>
   </mask>
   <mask id="id38">
  <linearGradient id="id39" gradientUnits="userSpaceOnUse" x1="-113.457" y1="999.313" x2="666.923" y2="1989.16">
   <stop offset="0" style="stop-opacity:1; stop-color:white"/>
   <stop offset="1" style="stop-opacity:0; stop-color:white"/>
  </linearGradient>
    <rect style="fill:url(#id39)" x="-3" y="906" width="560" height="1176"/>
   </mask>
   <mask id="id40">
  <linearGradient id="id41" gradientUnits="userSpaceOnUse" x1="482.875" y1="965.507" x2="864.358" y2="1449.39">
   <stop offset="0" style="stop-opacity:1; stop-color:white"/>
   <stop offset="1" style="stop-opacity:0; stop-color:white"/>
  </linearGradient>
    <rect style="fill:url(#id41)" x="550" y="906" width="247" height="602"/>
   </mask>
   <mask id="id42">
  <linearGradient id="id43" gradientUnits="userSpaceOnUse" x1="721.897" y1="1067.29" x2="1048.06" y2="1480.99">
   <stop offset="0" style="stop-opacity:1; stop-color:white"/>
   <stop offset="1" style="stop-opacity:0; stop-color:white"/>
  </linearGradient>
    <rect style="fill:url(#id43)" x="790" y="1008" width="190" height="533"/>
   </mask>
   <mask id="id44">
  <linearGradient id="id45" gradientUnits="userSpaceOnUse" x1="283.629" y1="66.3662" x2="977.53" y2="946.495">
   <stop offset="0" style="stop-opacity:1; stop-color:white"/>
   <stop offset="1" style="stop-opacity:0; stop-color:white"/>
  </linearGradient>
    <rect style="fill:url(#id45)" x="362" y="-2" width="537" height="1016"/>
   </mask>
   <mask id="id46">
  <linearGradient id="id47" gradientUnits="userSpaceOnUse" x1="1320.58" y1="1119.48" x2="1664.54" y2="1555.76">
   <stop offset="0" style="stop-opacity:1; stop-color:white"/>
   <stop offset="1" style="stop-opacity:0; stop-color:white"/>
  </linearGradient>
    <rect style="fill:url(#id47)" x="1133" y="1262" width="720" height="152"/>
   </mask>
   <mask id="id48">
  <linearGradient id="id49" gradientUnits="userSpaceOnUse" x1="1110.95" y1="601.97" x2="1756.77" y2="1421.13">
   <stop offset="0" style="stop-opacity:1; stop-color:white"/>
   <stop offset="1" style="stop-opacity:0; stop-color:white"/>
  </linearGradient>
    <rect style="fill:url(#id49)" x="892" y="768" width="1083" height="487"/>
   </mask>
   <mask id="id50">
  <linearGradient id="id51" gradientUnits="userSpaceOnUse" x1="1048.41" y1="651.268" x2="1707.47" y2="1487.24">
   <stop offset="0" style="stop-opacity:1; stop-color:white"/>
   <stop offset="1" style="stop-opacity:0; stop-color:white"/>
  </linearGradient>
    <rect style="fill:url(#id51)" x="892" y="768" width="971" height="602"/>
   </mask>
   <mask id="id52">
  <linearGradient id="id53" gradientUnits="userSpaceOnUse" x1="2960.94" y1="-90.532" x2="3546.47" y2="652.194">
   <stop offset="0" style="stop-opacity:1; stop-color:white"/>
   <stop offset="1" style="stop-opacity:0; stop-color:white"/>
  </linearGradient>
    <rect style="fill:url(#id53)" x="2840" y="-2" width="827" height="565"/>
   </mask>
   <mask id="id54">
  <linearGradient id="id55" gradientUnits="userSpaceOnUse" x1="-27.5094" y1="1701.28" x2="139.886" y2="1913.59">
   <stop offset="0" style="stop-opacity:1; stop-color:white"/>
   <stop offset="1" style="stop-opacity:0; stop-color:white"/>
  </linearGradient>
    <rect style="fill:url(#id55)" x="-3" y="1676" width="119" height="263"/>
   </mask>
   <mask id="id56">
  <linearGradient id="id57" gradientUnits="userSpaceOnUse" x1="16.9199" y1="812.155" x2="334.989" y2="1215.59">
   <stop offset="0" style="stop-opacity:1; stop-color:white"/>
   <stop offset="1" style="stop-opacity:0; stop-color:white"/>
  </linearGradient>
    <rect style="fill:url(#id57)" x="-3" y="822" width="359" height="384"/>
   </mask>
   <mask id="id58">
  <linearGradient id="id59" gradientUnits="userSpaceOnUse" x1="890.002" y1="1693.88" x2="1564.49" y2="2549.4">
   <stop offset="0" style="stop-opacity:1; stop-color:white"/>
   <stop offset="1" style="stop-opacity:0; stop-color:white"/>
  </linearGradient>
    <rect style="fill:url(#id59)" x="791" y="1766" width="872" height="712"/>
   </mask>
   <mask id="id60">
  <linearGradient id="id61" gradientUnits="userSpaceOnUse" x1="558.247" y1="1793.29" x2="1083.57" y2="2459.63">
   <stop offset="0" style="stop-opacity:1; stop-color:white"/>
   <stop offset="1" style="stop-opacity:0; stop-color:white"/>
  </linearGradient>
    <rect style="fill:url(#id61)" x="570" y="1778" width="501" height="697"/>
   </mask>
   <mask id="id62">
  <linearGradient id="id63" gradientUnits="userSpaceOnUse" x1="1603.55" y1="959.863" x2="1929.05" y2="1372.72">
   <stop offset="0" style="stop-opacity:1; stop-color:white"/>
   <stop offset="1" style="stop-opacity:0; stop-color:white"/>
  </linearGradient>
    <rect style="fill:url(#id63)" x="1497" y="1038" width="538" height="258"/>
   </mask>
   <mask id="id64">
  <linearGradient id="id65" gradientUnits="userSpaceOnUse" x1="1201.54" y1="1202.6" x2="1714.47" y2="1853.23">
   <stop offset="0" style="stop-opacity:1; stop-color:white"/>
   <stop offset="1" style="stop-opacity:0; stop-color:white"/>
  </linearGradient>
    <rect style="fill:url(#id65)" x="1085" y="1288" width="746" height="479"/>
   </mask>
   <mask id="id66">
  <linearGradient id="id67" gradientUnits="userSpaceOnUse" x1="1347.02" y1="1554.89" x2="1870.49" y2="2218.89">
   <stop offset="0" style="stop-opacity:1; stop-color:white"/>
   <stop offset="1" style="stop-opacity:0; stop-color:white"/>
  </linearGradient>
    <rect style="fill:url(#id67)" x="1085" y="1755" width="1047" height="263"/>
   </mask>
   <mask id="id68">
  <linearGradient id="id69" gradientUnits="userSpaceOnUse" x1="1102.64" y1="1712.02" x2="1601.39" y2="2344.66">
   <stop offset="0" style="stop-opacity:1; stop-color:white"/>
   <stop offset="1" style="stop-opacity:0; stop-color:white"/>
  </linearGradient>
    <rect style="fill:url(#id69)" x="1041" y="1755" width="622" height="547"/>
   </mask>
   <mask id="id70">
  <linearGradient id="id71" gradientUnits="userSpaceOnUse" x1="1404.87" y1="697.899" x2="2399.36" y2="1959.29">
   <stop offset="0" style="stop-opacity:1; stop-color:white"/>
   <stop offset="1" style="stop-opacity:0; stop-color:white"/>
  </linearGradient>
    <rect style="fill:url(#id71)" x="1438" y="665" width="928" height="1326"/>
   </mask>
   <mask id="id72">
  <linearGradient id="id73" gradientUnits="userSpaceOnUse" x1="1140.48" y1="1021.35" x2="1151.45" y2="1035.26">
   <stop offset="0" style="stop-opacity:1; stop-color:white"/>
   <stop offset="1" style="stop-opacity:0; stop-color:white"/>
  </linearGradient>
    <rect style="fill:url(#id73)" x="1136" y="1019" width="20.1331" height="18.9603"/>
   </mask>
   <mask id="id74">
  <linearGradient id="id75" gradientUnits="userSpaceOnUse" x1="2387.01" y1="417.044" x2="2617.21" y2="709.031">
   <stop offset="0" style="stop-opacity:1; stop-color:white"/>
   <stop offset="1" style="stop-opacity:0; stop-color:white"/>
  </linearGradient>
    <rect style="fill:url(#id75)" x="2332" y="454" width="339" height="218"/>
   </mask>
   <mask id="id76">
  <linearGradient id="id77" gradientUnits="userSpaceOnUse" x1="1149.66" y1="1024.49" x2="1766.35" y2="1806.73">
   <stop offset="0" style="stop-opacity:1; stop-color:white"/>
   <stop offset="1" style="stop-opacity:0; stop-color:white"/>
  </linearGradient>
    <rect style="fill:url(#id77)" x="1085" y="1069" width="746" height="693"/>
   </mask>
   <mask id="id78">
  <linearGradient id="id79" gradientUnits="userSpaceOnUse" x1="1628.5" y1="370.156" x2="2228.55" y2="1131.28">
   <stop offset="0" style="stop-opacity:1; stop-color:white"/>
   <stop offset="1" style="stop-opacity:0; stop-color:white"/>
  </linearGradient>
    <rect style="fill:url(#id79)" x="1514" y="454" width="828" height="594"/>
   </mask>
   <mask id="id80">
  <linearGradient id="id81" gradientUnits="userSpaceOnUse" x1="323.395" y1="2132.88" x2="323.587" y2="2133.13">
   <stop offset="0" style="stop-opacity:1; stop-color:white"/>
   <stop offset="1" style="stop-opacity:0; stop-color:white"/>
  </linearGradient>
    <rect style="fill:url(#id81)" x="320" y="2129" width="7.0471" height="7.11568"/>
   </mask>
   <mask id="id82">
  <linearGradient id="id83" gradientUnits="userSpaceOnUse" x1="1148.41" y1="1460.53" x2="1230.64" y2="1564.84">
   <stop offset="0" style="stop-opacity:1; stop-color:white"/>
   <stop offset="1" style="stop-opacity:0; stop-color:white"/>
  </linearGradient>
    <rect style="fill:url(#id83)" x="1099" y="1493" width="180.334" height="39.2443"/>
   </mask>
   <mask id="id84">
  <linearGradient id="id85" gradientUnits="userSpaceOnUse" x1="746.255" y1="1353.92" x2="1119.62" y2="1827.5">
   <stop offset="0" style="stop-opacity:1; stop-color:white"/>
   <stop offset="1" style="stop-opacity:0; stop-color:white"/>
  </linearGradient>
    <rect style="fill:url(#id85)" x="726" y="1363" width="413" height="455"/>
   </mask>
   <mask id="id86">
  <linearGradient id="id87" gradientUnits="userSpaceOnUse" x1="734.596" y1="1590.15" x2="1439.35" y2="2484.07">
   <stop offset="0" style="stop-opacity:1; stop-color:white"/>
   <stop offset="1" style="stop-opacity:0; stop-color:white"/>
  </linearGradient>
    <rect style="fill:url(#id87)" x="719" y="1596" width="736" height="881"/>
   </mask>
   <mask id="id88">
  <linearGradient id="id89" gradientUnits="userSpaceOnUse" x1="119.876" y1="1438.31" x2="120.006" y2="1438.47">
   <stop offset="0" style="stop-opacity:1; stop-color:white"/>
   <stop offset="1" style="stop-opacity:0; stop-color:white"/>
  </linearGradient>
    <rect style="fill:url(#id89)" x="116" y="1435" width="7.02309" height="6.99909"/>
   </mask>
   <mask id="id90">
  <linearGradient id="id91" gradientUnits="userSpaceOnUse" x1="568.675" y1="1547.99" x2="740.754" y2="1766.26">
   <stop offset="0" style="stop-opacity:1; stop-color:white"/>
   <stop offset="1" style="stop-opacity:0; stop-color:white"/>
  </linearGradient>
    <rect style="fill:url(#id91)" x="584" y="1530" width="142" height="254"/>
   </mask>
   <mask id="id92">
  <linearGradient id="id93" gradientUnits="userSpaceOnUse" x1="289.051" y1="1677.93" x2="626.509" y2="2105.97">
   <stop offset="0" style="stop-opacity:1; stop-color:white"/>
   <stop offset="1" style="stop-opacity:0; stop-color:white"/>
  </linearGradient>
    <rect style="fill:url(#id93)" x="320" y="1647" width="275" height="489"/>
   </mask>
   <mask id="id94">
  <linearGradient id="id95" gradientUnits="userSpaceOnUse" x1="411.101" y1="1718.8" x2="873.398" y2="2305.2">
   <stop offset="0" style="stop-opacity:1; stop-color:white"/>
   <stop offset="1" style="stop-opacity:0; stop-color:white"/>
  </linearGradient>
    <rect style="fill:url(#id95)" x="559" y="1596" width="167" height="831"/>
   </mask>
   <mask id="id96">
  <linearGradient id="id97" gradientUnits="userSpaceOnUse" x1="248.305" y1="1840" x2="662.194" y2="2364.98">
   <stop offset="0" style="stop-opacity:1; stop-color:white"/>
   <stop offset="1" style="stop-opacity:0; stop-color:white"/>
  </linearGradient>
    <rect style="fill:url(#id97)" x="320" y="1777" width="270" height="650"/>
   </mask>
   <mask id="id98">
  <linearGradient id="id99" gradientUnits="userSpaceOnUse" x1="201.969" y1="2136.49" x2="414.541" y2="2406.13">
   <stop offset="0" style="stop-opacity:1; stop-color:white"/>
   <stop offset="1" style="stop-opacity:0; stop-color:white"/>
  </linearGradient>
    <rect style="fill:url(#id99)" x="203" y="2130" width="211" height="283"/>
   </mask>
   <mask id="id100">
  <linearGradient id="id101" gradientUnits="userSpaceOnUse" x1="173.986" y1="2146.83" x2="392.264" y2="2423.69">
   <stop offset="0" style="stop-opacity:1; stop-color:white"/>
   <stop offset="1" style="stop-opacity:0; stop-color:white"/>
  </linearGradient>
    <rect style="fill:url(#id101)" x="153" y="2158" width="261" height="255"/>
   </mask>
   <mask id="id102">
  <linearGradient id="id103" gradientUnits="userSpaceOnUse" x1="634.235" y1="1474.55" x2="756.166" y2="1629.21">
   <stop offset="0" style="stop-opacity:1; stop-color:white"/>
   <stop offset="1" style="stop-opacity:0; stop-color:white"/>
  </linearGradient>
    <rect style="fill:url(#id103)" x="593" y="1501" width="204" height="102"/>
   </mask>
   <mask id="id104">
  <linearGradient id="id105" gradientUnits="userSpaceOnUse" x1="649.146" y1="1613.28" x2="870.915" y2="1894.59">
   <stop offset="0" style="stop-opacity:1; stop-color:white"/>
   <stop offset="1" style="stop-opacity:0; stop-color:white"/>
  </linearGradient>
    <rect style="fill:url(#id105)" x="663" y="1597" width="195" height="315"/>
   </mask>
   <mask id="id106">
  <linearGradient id="id107" gradientUnits="userSpaceOnUse" x1="1452.25" y1="1184.26" x2="1691.2" y2="1487.35">
   <stop offset="0" style="stop-opacity:1; stop-color:white"/>
   <stop offset="1" style="stop-opacity:0; stop-color:white"/>
  </linearGradient>
    <rect style="fill:url(#id107)" x="1313" y="1288" width="518.19" height="95.2164"/>
   </mask>
   <mask id="id108">
  <linearGradient id="id109" gradientUnits="userSpaceOnUse" x1="2604.43" y1="248.284" x2="3063.27" y2="830.268">
   <stop offset="0" style="stop-opacity:1; stop-color:white"/>
   <stop offset="1" style="stop-opacity:0; stop-color:white"/>
  </linearGradient>
    <rect style="fill:url(#id109)" x="2336" y="454" width="996" height="171"/>
   </mask>
   <mask id="id110">
  <linearGradient id="id111" gradientUnits="userSpaceOnUse" x1="240.441" y1="1040.69" x2="745" y2="1680.68">
   <stop offset="0" style="stop-opacity:1; stop-color:white"/>
   <stop offset="1" style="stop-opacity:0; stop-color:white"/>
  </linearGradient>
    <rect style="fill:url(#id111)" x="385" y="920" width="215" height="881"/>
   </mask>
   <mask id="id112">
  <linearGradient id="id113" gradientUnits="userSpaceOnUse" x1="1842.25" y1="1279.9" x2="2341.24" y2="1912.83">
   <stop offset="0" style="stop-opacity:1; stop-color:white"/>
   <stop offset="1" style="stop-opacity:0; stop-color:white"/>
  </linearGradient>
    <rect style="fill:url(#id113)" x="1824" y="1288" width="536" height="616"/>
   </mask>
   <mask id="id114">
  <linearGradient id="id115" gradientUnits="userSpaceOnUse" x1="1125.93" y1="312.696" x2="1692.6" y2="1031.48">
   <stop offset="0" style="stop-opacity:1; stop-color:white"/>
   <stop offset="1" style="stop-opacity:0; stop-color:white"/>
  </linearGradient>
    <rect style="fill:url(#id115)" x="1073" y="348" width="672" height="648"/>
   </mask>
   <mask id="id116">
  <linearGradient id="id117" gradientUnits="userSpaceOnUse" x1="3633.41" y1="-0.00342924" x2="3633.62" y2="0.264052">
   <stop offset="0" style="stop-opacity:1; stop-color:white"/>
   <stop offset="1" style="stop-opacity:0; stop-color:white"/>
  </linearGradient>
    <rect style="fill:url(#id117)" x="3630" y="-3" width="7.08139" height="7.11911"/>
   </mask>
 </defs>
 <g id="Слой_x0020_1">
  <metadata id="CorelCorpID_0Corel-Layer"/>
  <polygon class="fil0" style="mask:url(#id0)" points="2830,508 2844,492 2870,512 "/>
  <polygon class="fil1" style="mask:url(#id2)" points="3618,2 2844,492 2899,424 3228,20 3243,2 "/>
  <path class="fil2" style="mask:url(#id4)" d="M3243 2l-15 18 -385 471 -14 17 -491 -51 0 0 0 0 -46 -456 950 0zm-619 759l-15 19 0 0 -4 5m-201 -125l0 0 16 -2 -16 2z"/>
  <polygon class="fil3" style="mask:url(#id6)" points="214,68 0,89 0,2 242,2 "/>
  <polygon class="fil4" style="mask:url(#id8)" points="544,906 553,910 546,924 "/>
  <polygon class="fil4" style="mask:url(#id10)" points="794,1505 793,1505 794,1505 794,1505 "/>
  <polygon class="fil1" style="mask:url(#id12)" points="345,2 365,50 276,2 "/>
  <polygon class="fil2" style="mask:url(#id14)" points="365,50 345,2 425,2 "/>
  <polygon class="fil5" style="mask:url(#id16)" points="157,1278 232,1202 338,1308 112,1727 0,1680 0,1437 "/>
  <polygon class="fil0" style="mask:url(#id18)" points="0,951 18,971 232,1202 0,1437 "/>
  <polygon class="fil6" style="mask:url(#id20)" points="0,678 352,825 0,726 "/>
  <polygon class="fil5" style="mask:url(#id22)" points="0,89 214,68 214,68 211,71 20,256 1,274 1,274 0,275 "/>
  <path class="fil7" style="mask:url(#id24)" d="M338 1308l-106 -106 120 -377 101 42 91 38 2 18 0 0m0 0l-164 304 -44 81 0 0m206 -402l2 18z"/>
  <path class="fil3" style="mask:url(#id26)" d="M896 772l0 0 0 0 0 0zm0 0l332 -770 86 0 379 482 50 63 -665 -195 513 641 152 -446 170 216 -322 230 -694 -221 0 0zm1016 -9l0 0zm120 278l-60 73 0 0 60 -73 0 0zm0 0l-245 15 -40 -13 285 -2z"/>
  <polygon class="fil8" style="mask:url(#id28)" points="1227,2 896,772 896,772 896,772 896,772 896,772 669,210 585,2 "/>
  <polygon class="fil9" style="mask:url(#id30)" points="553,910 544,906 352,825 0,678 0,275 1,274 211,71 214,68 "/>
  <polygon class="fil1" style="mask:url(#id32)" points="1912,763 1912,763 1912,763 1742,547 1742,547 1742,547 1313,2 2158,2 "/>
  <path class="fil5" style="mask:url(#id34)" d="M0 2079l186 -134 -124 348 -54 13 -8 -8 0 -219zm52 241l-8 22 -12 -12 20 -10z"/>
  <path class="fil7" style="mask:url(#id36)" d="M44 2342l8 -22 15 -7 -23 29zm18 -50l124 -348 203 -147 0 0 0 0 203 -147 -504 635 -27 6z"/>
  <path class="fil10" style="mask:url(#id38)" d="M186 1945l-186 134 0 -143 112 -208 226 -419 208 -385 -3 15 -358 1006zm360 -1021l0 0 7 -14 0 0 -7 20 0 -4 0 -2z"/>
  <path class="fil1" style="mask:url(#id40)" d="M553 910l240 101 0 0 0 0 0 493 0 0 0 1 0 -1 0 0 0 0 -240 -594zm240 101l0 0 0 0 0 0z"/>
  <polygon class="fil5" style="mask:url(#id42)" points="860,1537 794,1505 794,1505 794,1504 793,1011 977,1465 "/>
  <polygon class="fil9" style="mask:url(#id44)" points="896,772 793,1011 365,50 425,2 585,2 "/>
  <path class="fil6" style="mask:url(#id46)" d="M1731 1410l14 -17 83 -101m0 0l22 -27 0 0 -22 27 0 0 -83 101m-429 -13l-180 -13 206 -29 -26 43 0 0z"/>
  <path class="fil5" style="mask:url(#id48)" d="M896 772l0 0 0 0 0 0zm0 0l694 221 -72 51 229 -1 40 13 -287 17 -605 -301zm1076 343l0 0 -112 137 0 0 112 -137z"/>
  <path class="fil7" style="mask:url(#id50)" d="M1849 1265l0 0 11 -14 0 0 -11 14zm-706 -231l-3 -8 13 -4 -10 12zm199 303l-206 29 -240 -595 605 301 0 0 0 0 0 0 -159 265z"/>
  <polygon class="fil7" style="mask:url(#id52)" points="2870,512 2844,492 3618,2 3664,2 3328,560 3316,529 3195,546 "/>
  <polygon class="fil7" style="mask:url(#id54)" points="0,1680 112,1727 0,1935 "/>
  <polygon class="fil5" style="mask:url(#id56)" points="0,855 352,825 232,1202 0,951 "/>
  <path class="fil3" style="mask:url(#id58)" d="M1409 2133l251 165 -7 2 -555 173 179 -195 133 -145zm-370 271l-207 -472 13 -25 10 1 -5 -11 86 200 140 328 -37 -21zm-244 -635l0 0 55 128m810 401l0 0 0 0 0 0zm-565 176l0 0 -27 -2 0 0 27 2z"/>
  <path class="fil1" style="mask:url(#id60)" d="M765 1781l50 115m-140 -55l5 -24 85 -35m-152 382l0 0 -31 160 31 -160zm-37 -105l-3 69m117 77l141 -272 207 472 -348 -200zm318 223l-102 3 0 0 102 -3zm60 45l0 0 -38 -4 0 0 38 4z"/>
  <polygon class="fil0" style="mask:url(#id62)" points="2032,1041 1827,1292 1501,1073 2032,1041 "/>
  <path class="fil1" style="mask:url(#id64)" d="M1442 1764l-353 -6 0 0 0 0 0 0 739 -467 0 0 -96 117 -239 293 -50 62zm386 -473l0 0 0 0 0 0z"/>
  <polygon class="fil6" style="mask:url(#id66)" points="1442,1764 2129,1942 2129,2015 1207,1788 1207,1788 1089,1759 "/>
  <polygon class="fil5" style="mask:url(#id68)" points="1089,1759 1207,1788 1207,1788 1207,1788 1660,2299 1409,2133 1419,2122 1452,2086 1044,1815 1056,1758 "/>
  <path class="fil2" style="mask:url(#id70)" d="M1442 1764l50 -62 335 -411 144 609 -158 -41 -372 -96zm386 -473l205 -251 0 0 0 0 304 -372 27 1320 -234 -47 -158 -41 385 -142 -529 -467z"/>
  <polygon class="fil4" style="mask:url(#id72)" points="1143,1034 1139,1026 1153,1022 "/>
  <polygon class="fil7" style="mask:url(#id74)" points="2339,457 2346,461 2668,621 2472,649 2336,669 "/>
  <polygon class="fil7" style="mask:url(#id76)" points="1501,1073 1827,1292 1827,1292 1342,1337 1316,1380 1827,1292 1089,1759 1242,1503 1276,1497 1276,1496 1242,1503 "/>
  <polygon class="fil5" style="mask:url(#id78)" points="2339,457 2336,669 2032,1041 1518,1044 "/>
  <polygon class="fil4" style="mask:url(#id80)" points="323,2133 324,2133 323,2133 323,2133 323,2133 323,2133 "/>
  <polygon class="fil7" style="mask:url(#id82)" points="1276,1496 1276,1497 1103,1529 1103,1529 "/>
  <path class="fil3" style="mask:url(#id84)" d="M749 1662l0 0 -19 -44 0 0 19 44zm-9 -51l396 -245 -92 448 -304 -203z"/>
  <polygon class="fil2" style="mask:url(#id86)" points="935,2097 849,1897 806,1796 722,1600 722,1600 722,1600 722,1600 1452,2086 1419,2122 1276,2278 1096,2474 1096,2474 1096,2474 1075,2425 "/>
  <polygon class="fil0" style="mask:url(#id88)" points="120,1438 120,1438 120,1438 120,1438 "/>
  <polygon class="fil5" style="mask:url(#id90)" points="722,1600 722,1600 587,1781 597,1534 "/>
  <polygon class="fil7" style="mask:url(#id92)" points="592,1651 587,1781 323,2133 324,2133 "/>
  <polygon class="fil10" style="mask:url(#id94)" points="587,1781 722,1600 722,1600 722,1600 722,1600 722,1600 666,1890 613,2163 564,2415 562,2424 "/>
  <path class="fil5" style="mask:url(#id96)" d="M587 1781l-25 644 -239 -291 264 -352zm-264 352l0 0 0 0 0 0z"/>
  <polygon class="fil5" style="mask:url(#id98)" points="206,2161 323,2133 323,2133 410,2410 206,2161 "/>
  <polygon class="fil7" style="mask:url(#id100)" points="156,2270 206,2161 410,2410 "/>
  <polygon class="fil7" style="mask:url(#id102)" points="794,1504 723,1600 597,1534 "/>
  <polygon class="fil7" style="mask:url(#id104)" points="854,1908 666,1890 722,1600 "/>
  <polygon class="fil0" style="mask:url(#id106)" points="1827,1292 1316,1380 1342,1337 "/>
  <polygon class="fil6" style="mask:url(#id108)" points="2668,621 2339,457 3328,560 "/>
  <polygon class="fil7" style="mask:url(#id110)" points="389,1798 546,924 597,1534 "/>
  <polygon class="fil1" style="mask:url(#id112)" points="1971,1901 2356,1759 1827,1292 "/>
  <polygon class="fil7" style="mask:url(#id114)" points="1077,352 1742,547 1590,993 "/>
  <polygon class="fil0" style="mask:url(#id116)" points="3633,0 3634,0 3634,0 3634,0 "/>
 </g>
</svg>
