<?xml version="1.0" encoding="utf-8"?>
<!-- Generator: Adobe Illustrator 21.0.0, SVG Export Plug-In . SVG Version: 6.00 Build 0)  -->
<svg version="1.1" id="Слой_1" xmlns="http://www.w3.org/2000/svg" xmlns:xlink="http://www.w3.org/1999/xlink" x="0px" y="0px"
	 viewBox="0 0 66 4" style="enable-background:new 0 0 66 4;" xml:space="preserve">
<style type="text/css">
	.st0{fill:#CD1341;}
</style>
<g>
	<path class="st0" d="M64,4h-4c-1.1,0-2-0.9-2-2v0c0-1.1,0.9-2,2-2l4,0c1.1,0,2,0.9,2,2v0C66,3.1,65.1,4,64,4z"/>
	<path class="st0" d="M48,4H2C0.9,4,0,3.1,0,2v0c0-1.1,0.9-2,2-2l46,0c1.1,0,2,0.9,2,2v0C50,3.1,49.1,4,48,4z"/>
</g>
</svg>
