<?xml version="1.0" encoding="utf-8"?>
<!-- Generator: Adobe Illustrator 21.0.0, SVG Export Plug-In . SVG Version: 6.00 Build 0)  -->
<svg version="1.1" id="Слой_1" xmlns="http://www.w3.org/2000/svg" xmlns:xlink="http://www.w3.org/1999/xlink" x="0px" y="0px"
	 viewBox="0 0 95 95" style="enable-background:new 0 0 95 95;" xml:space="preserve">
<style type="text/css">
	.st0{fill:#0E73C5;}
	.st1{fill:none;stroke:#0E73C5;stroke-width:5;stroke-miterlimit:10;}
</style>
<title>i20</title>
<desc>Created with Sketch.</desc>
<g>
	<path class="st0" d="M72.5,59.6v-8.4c0-3.2-2.6-5.8-5.8-5.8c-3.2,0-6.2-1.9-4.6-5.4c0.6-1.3,1.5-2.3,2.2-3.5
		c0.9-1.5,1.2-3.3,0.2-4.8c-1.6-2.6-5.5-2.6-7.1,0c-4,6.6-6.1,14.1-6.1,21.8v6.1c0,3.2,2.6,5.8,5.8,5.8h9.5
		C69.9,65.3,72.5,62.7,72.5,59.6 M37.8,65.3h-9.5c-3.2,0-5.8-2.6-5.8-5.8v-6.1c0-7.7,2.1-15.2,6.1-21.8c1.6-2.6,5.4-2.6,7.1,0
		c1,1.5,0.7,3.3-0.2,4.8c-0.7,1.2-1.7,2.2-2.2,3.5c-1.6,3.5,1.4,5.4,4.6,5.4c3.2,0,5.8,2.6,5.8,5.8v8.4C43.5,62.7,41,65.3,37.8,65.3
		"/>
</g>
<circle class="st1" cx="47.5" cy="47.5" r="45"/>
</svg>
